# Blender 4.0.2
# www.blender.org
mtllib king_s.mtl
o Cube
v 1.000000 -1.000000 -1.000000
v 1.000000 -1.000000 1.000000
v -1.000000 -1.000000 -1.000000
v -1.000000 -1.000000 1.000000
v 0.871657 -0.675586 -0.871657
v 1.000000 -0.803929 -1.000000
v 0.871657 -0.675586 0.871657
v 1.000000 -0.803929 1.000000
v -0.885911 -0.675586 -0.871657
v -1.000004 -0.803929 -1.000000
v -0.885911 -0.675586 0.871657
v -1.000004 -0.803929 1.000000
v -0.503515 -0.486482 0.503515
v -0.503515 1.472687 0.503515
v -0.503515 -0.486482 -0.503515
v -0.503515 1.472687 -0.503515
v 0.503515 -0.486482 0.503515
v 0.503515 1.472687 0.503515
v 0.503515 -0.486482 -0.503515
v 0.503515 1.472687 -0.503515
v -0.480883 -0.290565 0.480883
v -0.426209 -0.094648 0.426209
v -0.359323 0.101268 0.359323
v -0.300060 0.297185 0.300060
v -0.268251 0.493102 0.268251
v -0.300060 0.689019 0.300060
v -0.359323 0.884936 0.359323
v -0.426209 1.080853 0.426209
v -0.480883 1.276770 0.480883
v -0.480883 1.276770 -0.480883
v -0.426209 1.080853 -0.426209
v -0.359323 0.884936 -0.359323
v -0.300060 0.689019 -0.300060
v -0.268251 0.493102 -0.268251
v -0.300060 0.297185 -0.300060
v -0.359323 0.101268 -0.359323
v -0.426209 -0.094648 -0.426209
v -0.480883 -0.290565 -0.480883
v 0.480883 1.276770 -0.480883
v 0.426209 1.080853 -0.426209
v 0.359323 0.884936 -0.359323
v 0.300060 0.689019 -0.300060
v 0.268251 0.493102 -0.268251
v 0.300060 0.297185 -0.300060
v 0.359323 0.101268 -0.359323
v 0.426209 -0.094648 -0.426209
v 0.480883 -0.290565 -0.480883
v 0.480883 1.276770 0.480883
v 0.426209 1.080853 0.426209
v 0.359323 0.884936 0.359323
v 0.300060 0.689019 0.300060
v 0.268251 0.493102 0.268251
v 0.300060 0.297185 0.300060
v 0.359323 0.101268 0.359323
v 0.426209 -0.094648 0.426209
v 0.480883 -0.290565 0.480883
v 0.603712 -0.451190 0.605885
v -0.617966 -0.451190 0.605885
v 0.603712 -0.451190 -0.605885
v -0.617966 -0.451190 -0.605885
v -0.000000 2.556519 -0.415747
v 0.207874 2.556519 -0.360048
v -0.000000 1.451760 -0.424438
v 0.000000 2.250138 -0.628323
v 0.212219 1.451760 -0.367574
v 0.314162 2.250138 -0.544144
v 0.367574 1.451760 -0.212219
v 0.544144 2.250138 -0.314162
v 0.424438 1.451760 0.000000
v 0.628323 2.250138 0.000000
v 0.367574 1.451760 0.212219
v 0.544144 2.250138 0.314162
v 0.212219 1.451760 0.367574
v 0.314162 2.250138 0.544144
v -0.000000 1.451760 0.424438
v 0.000000 2.250138 0.628323
v -0.212219 1.451760 0.367574
v -0.314162 2.250138 0.544144
v -0.367574 1.451760 0.212219
v -0.544144 2.250138 0.314162
v -0.424438 1.451760 0.000000
v -0.628323 2.250138 0.000000
v -0.367574 1.451760 -0.212219
v -0.544144 2.250138 -0.314162
v -0.212219 1.451760 -0.367574
v -0.314162 2.250138 -0.544144
v 0.360048 2.556519 -0.207874
v 0.415747 2.556519 0.000000
v 0.360048 2.556519 0.207874
v 0.207874 2.556519 0.360048
v -0.000000 2.556519 0.415747
v -0.207874 2.556519 0.360048
v -0.360048 2.556519 0.207874
v -0.415747 2.556519 0.000000
v -0.360048 2.556519 -0.207874
v -0.207874 2.556519 -0.360048
v 0.052627 3.187046 -0.052627
v 0.052627 2.778115 -0.052627
v 0.052627 3.187046 0.052627
v 0.052627 2.778115 0.052627
v -0.052627 3.187046 -0.052627
v -0.052627 2.778115 -0.052627
v -0.052627 3.187046 0.052627
v -0.052627 2.778115 0.052627
v 0.052627 3.269015 0.052627
v -0.052627 3.269015 0.052627
v 0.052627 3.269015 -0.052627
v -0.052627 3.269015 -0.052627
v 0.052627 3.491399 0.052627
v -0.052627 3.491399 0.052627
v 0.052627 3.491399 -0.052627
v -0.052627 3.491399 -0.052627
v 0.265546 3.269015 0.052627
v 0.265546 3.269015 -0.052627
v -0.280889 3.269015 -0.052627
v -0.280889 3.269015 0.052627
v 0.265546 3.187046 0.052627
v 0.265546 3.187046 -0.052627
v -0.280889 3.187046 -0.052627
v -0.280889 3.187046 0.052627
v -0.417705 1.550397 0.417705
v -0.417705 1.550397 -0.417705
v 0.417705 1.550397 -0.417705
v 0.417705 1.550397 0.417705
v 0.000000 2.435573 -0.000000
v 0.126864 2.551257 0.092171
v -0.048457 2.551257 0.149137
v -0.156814 2.551257 -0.000000
v -0.048457 2.551257 -0.149137
v 0.126864 2.551257 -0.092171
v 0.048457 2.738438 0.149137
v -0.126864 2.738438 0.092171
v -0.126864 2.738438 -0.092171
v 0.048457 2.738438 -0.149137
v 0.156814 2.738438 -0.000000
v 0.000000 2.854121 -0.000000
vn 0.6507 0.3914 0.6507
vn -0.5773 -0.5774 0.5774
vn 0.5774 -0.5774 0.5774
vn -0.6506 0.3823 0.6562
vn -0.5773 -0.5774 -0.5774
vn 0.5774 -0.5774 -0.5774
vn 0.6507 0.3914 -0.6507
vn -0.4194 0.8188 0.3919
vn 0.3945 0.8300 0.3943
vn 0.3945 0.8300 -0.3943
vn -0.4194 0.8188 -0.3919
vn -0.6506 0.3823 -0.6562
vn 0.2655 0.9263 0.2675
vn -0.2655 0.9263 -0.2675
vn -0.6839 -0.2541 0.6839
vn -0.6658 0.3368 -0.6658
vn -0.6839 -0.2541 -0.6839
vn 0.6839 -0.2541 -0.6839
vn 0.6658 0.3368 -0.6658
vn 0.6839 -0.2541 0.6839
vn 0.6658 0.3368 0.6658
vn -0.2808 0.9178 0.2808
vn -0.6658 0.3368 0.6658
vn 0.6979 0.1612 0.6979
vn -0.6839 0.2541 0.6839
vn -0.6979 0.1612 0.6979
vn 0.6496 0.3952 0.6496
vn 0.6839 0.2541 0.6839
vn 0.6423 0.4181 0.6423
vn -0.6496 0.3952 0.6496
vn 0.6694 0.3224 0.6694
vn -0.6423 0.4181 0.6423
vn 0.7071 -0.0000 0.7071
vn -0.6694 0.3224 0.6694
vn -0.6694 -0.3224 0.6694
vn -0.7071 -0.0000 0.7071
vn 0.6423 -0.4181 0.6423
vn 0.6694 -0.3224 0.6694
vn 0.6496 -0.3952 0.6496
vn -0.6423 -0.4181 0.6423
vn -0.6496 -0.3952 0.6496
vn 0.6979 0.1612 -0.6979
vn 0.6496 0.3952 -0.6496
vn 0.6839 0.2541 -0.6839
vn 0.6423 0.4181 -0.6423
vn 0.6694 0.3224 -0.6694
vn 0.7071 -0.0000 -0.7071
vn 0.6423 -0.4181 -0.6423
vn 0.6694 -0.3224 -0.6694
vn 0.6496 -0.3952 -0.6496
vn -0.6979 0.1612 -0.6979
vn -0.6496 0.3952 -0.6496
vn -0.6839 0.2541 -0.6839
vn -0.6423 0.4181 -0.6423
vn -0.6694 0.3224 -0.6694
vn -0.7071 -0.0000 -0.7071
vn -0.6423 -0.4181 -0.6423
vn -0.6694 -0.3224 -0.6694
vn -0.6496 -0.3952 -0.6496
vn 0.2655 0.9263 -0.2675
vn -0.2655 0.9263 0.2675
vn -0.2808 0.9178 -0.2808
vn 0.8539 0.1664 0.4930
vn 0.2600 0.8542 0.4503
vn 0.4930 0.1664 0.8539
vn -0.0000 0.1664 -0.9861
vn 0.4845 -0.2474 -0.8391
vn -0.0000 -0.2474 -0.9689
vn -0.0000 0.1664 0.9861
vn -0.2600 0.8542 0.4503
vn -0.4930 0.1664 0.8539
vn 0.4930 0.1664 -0.8539
vn 0.8391 -0.2474 -0.4845
vn -0.8539 0.1664 0.4930
vn -0.5199 0.8542 -0.0000
vn -0.9861 0.1664 -0.0000
vn 0.8539 0.1664 -0.4930
vn 0.9689 -0.2474 -0.0000
vn 0.2600 0.8542 -0.4503
vn 0.9861 0.1664 -0.0000
vn 0.8391 -0.2474 0.4845
vn -0.8539 0.1664 -0.4930
vn -0.2600 0.8542 -0.4503
vn -0.4930 0.1664 -0.8539
vn 0.4845 -0.2474 0.8391
vn -0.0000 0.8542 -0.5199
vn -0.0000 -0.2474 0.9689
vn 0.4503 0.8542 -0.2600
vn -0.4845 -0.2474 0.8391
vn 0.5199 0.8542 -0.0000
vn 0.4503 0.8542 0.2600
vn -0.8391 -0.2474 0.4845
vn -0.0000 0.8542 0.5199
vn -0.9689 -0.2474 -0.0000
vn -0.4503 0.8542 0.2600
vn -0.8391 -0.2474 -0.4845
vn -0.4503 0.8542 -0.2600
vn -0.4845 -0.2474 -0.8391
vn -0.3015 -0.3015 0.9045
vn -0.5774 -0.5774 -0.5774
vn -0.5774 -0.5774 0.5774
vn -0.3015 -0.3015 -0.9045
vn 0.3015 -0.3015 -0.9045
vn 0.3015 -0.3015 0.9045
vn -0.3015 0.3015 0.9045
vn -0.3015 0.3015 -0.9045
vn 0.5774 0.5774 -0.5774
vn 0.3015 0.3015 -0.9045
vn 0.5774 0.5774 0.5774
vn 0.3015 0.3015 0.9045
vn -0.5774 0.5774 -0.5774
vn -0.5774 0.5774 0.5774
vn 0.2808 0.9178 0.2808
vn 0.2808 0.9178 -0.2808
vn -0.0000 -1.0000 -0.0000
vn 0.7328 -0.4237 0.5324
vn -0.2799 -0.4237 0.8615
vn 0.7328 -0.4237 -0.5324
vn -0.9058 -0.4237 -0.0000
vn -0.2799 -0.4237 -0.8615
vn 0.9058 0.4237 -0.0000
vn 0.2799 0.4237 0.8615
vn -0.7328 0.4237 0.5324
vn -0.7328 0.4237 -0.5324
vn 0.2799 0.4237 -0.8615
vn -0.0000 1.0000 -0.0000
vt 0.526097 0.750000
vt 0.375000 1.000000
vt 0.375000 0.750000
vt 0.526097 0.000000
vt 0.375000 0.250000
vt 0.375000 0.000000
vt 0.375000 0.500000
vt 0.125000 0.750000
vt 0.125000 0.500000
vt 0.526097 0.500000
vt 0.858957 0.733957
vt 0.625000 0.750000
vt 0.641043 0.733957
vt 0.641043 0.516043
vt 0.858957 0.516043
vt 0.875000 0.750000
vt 0.875000 0.500000
vt 0.526097 0.250000
vt 0.526097 1.000000
vt 0.625000 0.500000
vt 0.600000 0.000000
vt 0.625000 0.250000
vt 0.600000 0.250000
vt 0.600000 0.500000
vt 0.600000 0.750000
vt 0.600000 1.000000
vt 0.625000 1.000000
vt 0.400000 1.000000
vt 0.425000 0.750000
vt 0.400000 0.750000
vt 0.450000 0.750000
vt 0.425000 1.000000
vt 0.475000 0.750000
vt 0.450000 1.000000
vt 0.500000 0.750000
vt 0.475000 1.000000
vt 0.525000 1.000000
vt 0.500000 1.000000
vt 0.550000 0.750000
vt 0.525000 0.750000
vt 0.575000 0.750000
vt 0.550000 1.000000
vt 0.575000 1.000000
vt 0.425000 0.500000
vt 0.400000 0.500000
vt 0.450000 0.500000
vt 0.475000 0.500000
vt 0.500000 0.500000
vt 0.550000 0.500000
vt 0.525000 0.500000
vt 0.575000 0.500000
vt 0.425000 0.250000
vt 0.400000 0.250000
vt 0.450000 0.250000
vt 0.475000 0.250000
vt 0.500000 0.250000
vt 0.550000 0.250000
vt 0.525000 0.250000
vt 0.575000 0.250000
vt 0.400000 0.000000
vt 0.450000 0.000000
vt 0.425000 0.000000
vt 0.475000 0.000000
vt 0.500000 0.000000
vt 0.550000 0.000000
vt 0.525000 0.000000
vt 0.575000 0.000000
vt 0.625000 0.000000
vt 0.666667 1.000000
vt 0.583333 1.000000
vt 1.000000 1.000000
vt 0.916667 0.500000
vt 1.000000 0.500000
vt 0.500000 1.000000
vt 0.416667 1.000000
vt 0.916667 1.000000
vt 0.833333 0.500000
vt 0.333333 1.000000
vt 0.250000 1.000000
vt 0.833333 1.000000
vt 0.750000 0.500000
vt 0.750000 1.000000
vt 0.666667 0.500000
vt 0.166667 1.000000
vt 0.083333 1.000000
vt 0.583333 0.500000
vt 0.000000 1.000000
vt 0.500000 0.500000
vt 0.416667 0.500000
vt 0.333333 0.500000
vt 0.250000 0.500000
vt 0.166667 0.500000
vt 0.042154 0.370000
vt 0.250000 0.010000
vt 0.457846 0.370000
vt 0.083333 0.500000
vt 0.000000 0.500000
vt 0.370000 0.457846
vt 0.250000 0.490000
vt 0.130000 0.457846
vt 0.010000 0.250000
vt 0.042154 0.130000
vt 0.130000 0.042154
vt 0.370000 0.042154
vt 0.457846 0.130000
vt 0.490000 0.250000
vt 0.181819 0.000000
vt 0.272728 0.157461
vt 0.090910 0.157461
vt 0.363637 0.000000
vt 0.454546 0.157461
vt 0.909091 0.000000
vt 1.000000 0.157461
vt 0.818182 0.157461
vt 0.727273 0.000000
vt 0.636364 0.157461
vt 0.545455 0.000000
vt 0.363637 0.314921
vt 0.181819 0.314921
vt 0.909091 0.314921
vt 0.727273 0.314921
vt 0.545455 0.314921
vt 0.000000 0.314921
vt 0.272728 0.472382
vt 0.090910 0.472382
vt 0.818182 0.472382
vt 0.636364 0.472382
vt 0.454546 0.472382
s 1
usemtl Material
f 8/1/1 4/2/2 2/3/3
f 12/4/4 3/5/5 4/6/2
f 1/7/6 4/8/2 3/9/5
f 6/10/7 2/3/3 1/7/6
f 11/11/8 8/12/1 7/13/9
f 7/13/9 6/10/7 5/14/10
f 9/15/11 12/16/4 11/11/8
f 5/14/10 10/17/12 9/15/11
f 10/18/12 1/7/6 3/5/5
f 8/1/1 12/19/4 4/2/2
f 12/4/4 10/18/12 3/5/5
f 1/7/6 2/3/3 4/8/2
f 6/10/7 8/1/1 2/3/3
f 11/11/8 12/16/4 8/12/1
f 7/13/9 8/1/1 6/10/7
f 9/15/11 10/17/12 12/16/4
f 5/14/10 6/20/7 10/17/12
f 10/18/12 6/10/7 1/7/6
f 5/14/10 57/13/13 7/13/9
f 11/11/8 60/15/14 9/15/11
f 29/21/15 16/22/16 30/23/17
f 16/22/16 39/24/18 30/23/17
f 20/20/19 48/25/20 39/24/18
f 18/12/21 29/26/15 48/25/20
f 18/12/21 121/27/22 14/27/23
f 17/3/24 21/28/25 13/2/26
f 55/29/27 21/28/25 56/30/28
f 54/31/29 22/32/30 55/29/27
f 53/33/31 23/34/32 54/31/29
f 52/35/33 24/36/34 53/33/31
f 52/35/33 26/37/35 25/38/36
f 50/39/37 26/37/35 51/40/38
f 49/41/39 27/42/40 50/39/37
f 48/25/20 28/43/41 49/41/39
f 19/7/42 56/30/28 17/3/24
f 46/44/43 56/30/28 47/45/44
f 45/46/45 55/29/27 46/44/43
f 44/47/46 54/31/29 45/46/45
f 43/48/47 53/33/31 44/47/46
f 43/48/47 51/40/38 52/35/33
f 41/49/48 51/40/38 42/50/49
f 40/51/50 50/39/37 41/49/48
f 39/24/18 49/41/39 40/51/50
f 15/5/51 47/45/44 19/7/42
f 37/52/52 47/45/44 38/53/53
f 36/54/54 46/44/43 37/52/52
f 35/55/55 45/46/45 36/54/54
f 34/56/56 44/47/46 35/55/55
f 34/56/56 42/50/49 43/48/47
f 32/57/57 42/50/49 33/58/58
f 31/59/59 41/49/48 32/57/57
f 30/23/17 40/51/50 31/59/59
f 13/6/26 38/53/53 15/5/51
f 21/60/25 37/52/52 38/53/53
f 23/61/32 37/52/52 22/62/30
f 24/63/34 36/54/54 23/61/32
f 25/64/36 35/55/55 24/63/34
f 25/64/36 33/58/58 34/56/56
f 27/65/40 33/58/58 26/66/35
f 27/65/40 31/59/59 32/57/57
f 29/21/15 31/59/59 28/67/41
f 59/14/60 60/15/14 58/11/61
f 59/14/60 58/11/61 57/13/13
f 7/13/9 58/11/61 11/11/8
f 9/15/11 59/14/60 5/14/10
f 29/21/15 14/68/23 16/22/16
f 16/22/16 20/20/19 39/24/18
f 20/20/19 18/12/21 48/25/20
f 18/12/21 14/27/23 29/26/15
f 14/68/23 122/22/62 16/22/16
f 17/3/24 56/30/28 21/28/25
f 55/29/27 22/32/30 21/28/25
f 54/31/29 23/34/32 22/32/30
f 53/33/31 24/36/34 23/34/32
f 52/35/33 25/38/36 24/36/34
f 52/35/33 51/40/38 26/37/35
f 50/39/37 27/42/40 26/37/35
f 49/41/39 28/43/41 27/42/40
f 48/25/20 29/26/15 28/43/41
f 19/7/42 47/45/44 56/30/28
f 46/44/43 55/29/27 56/30/28
f 45/46/45 54/31/29 55/29/27
f 44/47/46 53/33/31 54/31/29
f 43/48/47 52/35/33 53/33/31
f 43/48/47 42/50/49 51/40/38
f 41/49/48 50/39/37 51/40/38
f 40/51/50 49/41/39 50/39/37
f 39/24/18 48/25/20 49/41/39
f 15/5/51 38/53/53 47/45/44
f 37/52/52 46/44/43 47/45/44
f 36/54/54 45/46/45 46/44/43
f 35/55/55 44/47/46 45/46/45
f 34/56/56 43/48/47 44/47/46
f 34/56/56 33/58/58 42/50/49
f 32/57/57 41/49/48 42/50/49
f 31/59/59 40/51/50 41/49/48
f 30/23/17 39/24/18 40/51/50
f 13/6/26 21/60/25 38/53/53
f 21/60/25 22/62/30 37/52/52
f 23/61/32 36/54/54 37/52/52
f 24/63/34 35/55/55 36/54/54
f 25/64/36 34/56/56 35/55/55
f 25/64/36 26/66/35 33/58/58
f 27/65/40 32/57/57 33/58/58
f 27/65/40 28/67/41 31/59/59
f 29/21/15 30/23/17 31/59/59
f 72/69/63 90/70/64 74/70/65
f 64/71/66 65/72/67 63/73/68
f 76/74/69 92/75/70 78/75/71
f 66/76/72 67/77/73 65/72/67
f 80/78/74 94/79/75 82/79/76
f 68/80/77 69/81/78 67/77/73
f 64/71/66 62/76/79 66/76/72
f 70/82/80 71/83/81 69/81/78
f 84/84/82 96/85/83 86/85/84
f 72/69/63 73/86/85 71/83/81
f 86/85/84 61/87/86 64/87/66
f 74/70/65 75/88/87 73/86/85
f 66/76/72 87/80/88 68/80/77
f 76/74/69 77/89/89 75/88/87
f 72/69/63 88/82/90 89/69/91
f 78/75/71 79/90/92 77/89/89
f 76/74/69 90/70/64 91/74/93
f 80/78/74 81/91/94 79/90/92
f 78/75/71 93/78/95 80/78/74
f 82/79/76 83/92/96 81/91/94
f 84/84/82 94/79/75 95/84/97
f 95/93/97 91/94/93 87/95/88
f 84/84/82 85/96/98 83/92/96
f 68/80/77 88/82/90 70/82/80
f 86/85/84 63/97/68 85/96/98
f 103/68/99 102/5/100 104/6/101
f 101/22/102 98/7/6 102/5/100
f 97/20/103 100/3/3 98/7/6
f 99/12/104 104/2/101 100/3/3
f 98/7/6 104/8/101 102/9/100
f 99/12/104 106/27/105 103/27/99
f 108/22/106 111/20/107 107/20/108
f 99/12/104 113/12/109 105/12/110
f 106/27/105 120/27/101 103/27/99
f 101/22/102 107/20/108 97/20/103
f 112/17/111 109/12/109 111/20/107
f 105/12/110 110/27/112 106/27/105
f 106/68/105 112/22/111 108/22/106
f 107/20/108 109/12/109 105/12/110
f 108/22/106 116/68/112 106/68/105
f 97/20/103 117/12/3 99/12/104
f 101/22/102 115/22/111 108/22/106
f 103/68/99 119/22/100 101/22/102
f 107/20/108 118/20/6 97/20/103
f 105/12/110 114/20/107 107/20/108
f 120/27/101 115/22/111 119/22/100
f 118/20/6 113/12/109 117/12/3
f 122/17/62 124/12/113 123/20/114
f 122/17/62 121/16/22 124/12/113
f 16/22/16 123/20/114 20/20/19
f 20/20/19 124/12/113 18/12/21
f 72/69/63 89/69/91 90/70/64
f 64/71/66 66/76/72 65/72/67
f 76/74/69 91/74/93 92/75/70
f 66/76/72 68/80/77 67/77/73
f 80/78/74 93/78/95 94/79/75
f 68/80/77 70/82/80 69/81/78
f 64/71/66 61/71/86 62/76/79
f 70/82/80 72/69/63 71/83/81
f 84/84/82 95/84/97 96/85/83
f 72/69/63 74/70/65 73/86/85
f 86/85/84 96/85/83 61/87/86
f 74/70/65 76/74/69 75/88/87
f 66/76/72 62/76/79 87/80/88
f 76/74/69 78/75/71 77/89/89
f 72/69/63 70/82/80 88/82/90
f 78/75/71 80/78/74 79/90/92
f 76/74/69 74/70/65 90/70/64
f 80/78/74 82/79/76 81/91/94
f 78/75/71 92/75/70 93/78/95
f 82/79/76 84/84/82 83/92/96
f 84/84/82 82/79/76 94/79/75
f 87/95/88 62/98/79 61/99/86
f 61/99/86 96/100/83 95/93/97
f 95/93/97 94/101/75 93/102/95
f 93/102/95 92/103/70 91/94/93
f 91/94/93 90/104/64 89/105/91
f 89/105/91 88/106/90 87/95/88
f 87/95/88 61/99/86 95/93/97
f 95/93/97 93/102/95 91/94/93
f 91/94/93 89/105/91 87/95/88
f 84/84/82 86/85/84 85/96/98
f 68/80/77 87/80/88 88/82/90
f 86/85/84 64/87/66 63/97/68
f 125/107/115 126/108/116 127/109/117
f 126/108/116 125/110/115 130/111/118
f 125/112/115 127/113/117 128/114/119
f 125/115/115 128/114/119 129/116/120
f 125/117/115 129/116/120 130/111/118
f 126/108/116 130/111/118 135/118/121
f 127/109/117 126/108/116 131/119/122
f 128/114/119 127/113/117 132/120/123
f 129/116/120 128/114/119 133/121/124
f 130/111/118 129/116/120 134/122/125
f 126/108/116 135/118/121 131/119/122
f 127/109/117 131/119/122 132/123/123
f 128/114/119 132/120/123 133/121/124
f 129/116/120 133/121/124 134/122/125
f 130/111/118 134/122/125 135/118/121
f 131/119/122 135/118/121 136/124/126
f 132/123/123 131/119/122 136/125/126
f 133/121/124 132/120/123 136/126/126
f 134/122/125 133/121/124 136/127/126
f 135/118/121 134/122/125 136/128/126
f 103/68/99 101/22/102 102/5/100
f 101/22/102 97/20/103 98/7/6
f 97/20/103 99/12/104 100/3/3
f 99/12/104 103/27/99 104/2/101
f 98/7/6 100/3/3 104/8/101
f 99/12/104 105/12/110 106/27/105
f 108/22/106 112/22/111 111/20/107
f 99/12/104 117/12/3 113/12/109
f 106/27/105 116/27/112 120/27/101
f 101/22/102 108/22/106 107/20/108
f 112/17/111 110/16/112 109/12/109
f 105/12/110 109/12/109 110/27/112
f 106/68/105 110/68/112 112/22/111
f 107/20/108 111/20/107 109/12/109
f 108/22/106 115/22/111 116/68/112
f 97/20/103 118/20/6 117/12/3
f 101/22/102 119/22/100 115/22/111
f 103/68/99 120/68/101 119/22/100
f 107/20/108 114/20/107 118/20/6
f 105/12/110 113/12/109 114/20/107
f 120/27/101 116/68/112 115/22/111
f 118/20/6 114/20/107 113/12/109
f 5/14/10 59/14/60 57/13/13
f 11/11/8 58/11/61 60/15/14
f 7/13/9 57/13/13 58/11/61
f 9/15/11 60/15/14 59/14/60
f 18/12/21 124/12/113 121/27/22
f 14/68/23 121/68/22 122/22/62
f 16/22/16 122/22/62 123/20/114
f 20/20/19 123/20/114 124/12/113
