# Blender 4.0.2
# www.blender.org
mtllib king.mtl
o Cube
v 1.000000 -1.000000 -1.000000
v 1.000000 -1.000000 1.000000
v -1.000000 -1.000000 -1.000000
v -1.000000 -1.000000 1.000000
v 0.871657 -0.675586 -0.871657
v 1.000000 -0.803929 -1.000000
v 0.871657 -0.675586 0.871657
v 1.000000 -0.803929 1.000000
v -0.885911 -0.675586 -0.871657
v -1.000004 -0.803929 -1.000000
v -0.885911 -0.675586 0.871657
v -1.000004 -0.803929 1.000000
v -0.503515 -0.486482 0.503515
v -0.503515 1.472687 0.503515
v -0.503515 -0.486482 -0.503515
v -0.503515 1.472687 -0.503515
v 0.503515 -0.486482 0.503515
v 0.503515 1.472687 0.503515
v 0.503515 -0.486482 -0.503515
v 0.503515 1.472687 -0.503515
v -0.480883 -0.290565 0.480883
v -0.426209 -0.094648 0.426209
v -0.359323 0.101268 0.359323
v -0.300060 0.297185 0.300060
v -0.268251 0.493102 0.268251
v -0.300060 0.689019 0.300060
v -0.359323 0.884936 0.359323
v -0.426209 1.080853 0.426209
v -0.480883 1.276770 0.480883
v -0.480883 1.276770 -0.480883
v -0.426209 1.080853 -0.426209
v -0.359323 0.884936 -0.359323
v -0.300060 0.689019 -0.300060
v -0.268251 0.493102 -0.268251
v -0.300060 0.297185 -0.300060
v -0.359323 0.101268 -0.359323
v -0.426209 -0.094648 -0.426209
v -0.480883 -0.290565 -0.480883
v 0.480883 1.276770 -0.480883
v 0.426209 1.080853 -0.426209
v 0.359323 0.884936 -0.359323
v 0.300060 0.689019 -0.300060
v 0.268251 0.493102 -0.268251
v 0.300060 0.297185 -0.300060
v 0.359323 0.101268 -0.359323
v 0.426209 -0.094648 -0.426209
v 0.480883 -0.290565 -0.480883
v 0.480883 1.276770 0.480883
v 0.426209 1.080853 0.426209
v 0.359323 0.884936 0.359323
v 0.300060 0.689019 0.300060
v 0.268251 0.493102 0.268251
v 0.300060 0.297185 0.300060
v 0.359323 0.101268 0.359323
v 0.426209 -0.094648 0.426209
v 0.480883 -0.290565 0.480883
v 0.603712 -0.451190 0.605885
v -0.617966 -0.451190 0.605885
v 0.603712 -0.451190 -0.605885
v -0.617966 -0.451190 -0.605885
v -0.000000 2.556519 -0.415747
v 0.207874 2.556519 -0.360048
v -0.000000 1.451760 -0.424438
v 0.000000 2.250138 -0.628323
v 0.212219 1.451760 -0.367574
v 0.314162 2.250138 -0.544144
v 0.367574 1.451760 -0.212219
v 0.544144 2.250138 -0.314162
v 0.424438 1.451760 0.000000
v 0.628323 2.250138 0.000000
v 0.367574 1.451760 0.212219
v 0.544144 2.250138 0.314162
v 0.212219 1.451760 0.367574
v 0.314162 2.250138 0.544144
v -0.000000 1.451760 0.424438
v 0.000000 2.250138 0.628323
v -0.212219 1.451760 0.367574
v -0.314162 2.250138 0.544144
v -0.367574 1.451760 0.212219
v -0.544144 2.250138 0.314162
v -0.424438 1.451760 0.000000
v -0.628323 2.250138 0.000000
v -0.367574 1.451760 -0.212219
v -0.544144 2.250138 -0.314162
v -0.212219 1.451760 -0.367574
v -0.314162 2.250138 -0.544144
v 0.360048 2.556519 -0.207874
v 0.415747 2.556519 0.000000
v 0.360048 2.556519 0.207874
v 0.207874 2.556519 0.360048
v -0.000000 2.556519 0.415747
v -0.207874 2.556519 0.360048
v -0.360048 2.556519 0.207874
v -0.415747 2.556519 0.000000
v -0.360048 2.556519 -0.207874
v -0.207874 2.556519 -0.360048
v 0.052627 3.187046 -0.052627
v 0.052627 2.778115 -0.052627
v 0.052627 3.187046 0.052627
v 0.052627 2.778115 0.052627
v -0.052627 3.187046 -0.052627
v -0.052627 2.778115 -0.052627
v -0.052627 3.187046 0.052627
v -0.052627 2.778115 0.052627
v 0.052627 3.269015 0.052627
v -0.052627 3.269015 0.052627
v 0.052627 3.269015 -0.052627
v -0.052627 3.269015 -0.052627
v 0.052627 3.491399 0.052627
v -0.052627 3.491399 0.052627
v 0.052627 3.491399 -0.052627
v -0.052627 3.491399 -0.052627
v 0.265546 3.269015 0.052627
v 0.265546 3.269015 -0.052627
v -0.280889 3.269015 -0.052627
v -0.280889 3.269015 0.052627
v 0.265546 3.187046 0.052627
v 0.265546 3.187046 -0.052627
v -0.280889 3.187046 -0.052627
v -0.280889 3.187046 0.052627
v -0.417705 1.550397 0.417705
v -0.417705 1.550397 -0.417705
v 0.417705 1.550397 -0.417705
v 0.417705 1.550397 0.417705
v 0.000000 2.435573 -0.000000
v 0.126864 2.551257 0.092171
v -0.048457 2.551257 0.149137
v -0.156814 2.551257 -0.000000
v -0.048457 2.551257 -0.149137
v 0.126864 2.551257 -0.092171
v 0.048457 2.738438 0.149137
v -0.126864 2.738438 0.092171
v -0.126864 2.738438 -0.092171
v 0.048457 2.738438 -0.149137
v 0.156814 2.738438 -0.000000
v 0.000000 2.854121 -0.000000
vn -0.0000 -0.0000 1.0000
vn -1.0000 -0.0000 -0.0000
vn -0.0000 -1.0000 -0.0000
vn 1.0000 -0.0000 -0.0000
vn -0.0000 0.7071 0.7071
vn 0.7071 0.7071 -0.0000
vn -0.7474 0.6644 -0.0000
vn -0.0000 0.7071 -0.7071
vn -0.0000 -0.0000 -1.0000
vn 0.6421 0.7667 -0.0000
vn -0.6421 0.7667 -0.0000
vn -0.9934 -0.1148 -0.0000
vn -0.0000 -0.1148 -0.9934
vn 0.9934 -0.1148 -0.0000
vn -0.0000 -0.1148 0.9934
vn -0.0000 0.7412 0.6713
vn -0.0000 0.1148 0.9934
vn -0.0000 0.2688 0.9632
vn -0.0000 0.3231 0.9464
vn -0.0000 0.2895 0.9572
vn -0.0000 0.1603 0.9871
vn -0.0000 -0.1603 0.9871
vn -0.0000 -0.2895 0.9572
vn -0.0000 -0.3231 0.9464
vn -0.0000 -0.2688 0.9632
vn 0.9934 0.1148 -0.0000
vn 0.9632 0.2688 -0.0000
vn 0.9464 0.3231 -0.0000
vn 0.9572 0.2895 -0.0000
vn 0.9871 0.1603 -0.0000
vn 0.9871 -0.1603 -0.0000
vn 0.9572 -0.2895 -0.0000
vn 0.9464 -0.3231 -0.0000
vn 0.9632 -0.2688 -0.0000
vn -0.0000 0.1148 -0.9934
vn -0.0000 0.2688 -0.9632
vn -0.0000 0.3231 -0.9464
vn -0.0000 0.2895 -0.9572
vn -0.0000 0.1603 -0.9871
vn -0.0000 -0.1603 -0.9871
vn -0.0000 -0.2895 -0.9572
vn -0.0000 -0.3231 -0.9464
vn -0.0000 -0.2688 -0.9632
vn -0.9934 0.1148 -0.0000
vn -0.9632 0.2688 -0.0000
vn -0.9464 0.3231 -0.0000
vn -0.9572 0.2895 -0.0000
vn -0.9871 0.1603 -0.0000
vn -0.9871 -0.1603 -0.0000
vn -0.9572 -0.2895 -0.0000
vn -0.9464 -0.3231 -0.0000
vn -0.9632 -0.2688 -0.0000
vn -0.0000 1.0000 -0.0000
vn -0.0000 0.7641 0.6451
vn -0.0000 0.7641 -0.6451
vn -0.6713 0.7412 -0.0000
vn 0.5874 0.5567 0.5874
vn 0.2513 -0.2395 -0.9378
vn -0.2150 0.5567 0.8024
vn 0.6865 -0.2395 -0.6865
vn -0.8024 0.5567 0.2150
vn 0.9378 -0.2395 -0.2513
vn 0.2150 0.5567 -0.8024
vn 0.9378 -0.2395 0.2513
vn -0.5874 0.5567 -0.5874
vn 0.6865 -0.2395 0.6865
vn -0.2150 0.5567 -0.8024
vn 0.2513 -0.2395 0.9378
vn 0.5874 0.5567 -0.5874
vn -0.2513 -0.2395 0.9378
vn 0.8024 0.5567 0.2150
vn -0.6865 -0.2395 0.6865
vn 0.2150 0.5567 0.8024
vn -0.9378 -0.2395 0.2513
vn -0.5874 0.5567 0.5874
vn -0.9378 -0.2395 -0.2513
vn -0.8024 0.5567 -0.2150
vn -0.6865 -0.2395 -0.6865
vn 0.8024 0.5567 -0.2150
vn -0.2513 -0.2395 -0.9378
vn -0.0000 0.7412 -0.6713
vn 0.6713 0.7412 -0.0000
vn 0.2082 -0.7389 0.6408
vn 0.6738 -0.7389 -0.0000
vn -0.5451 -0.7389 0.3961
vn -0.5451 -0.7389 -0.3961
vn 0.2082 -0.7389 -0.6408
vn 0.9874 -0.1580 -0.0000
vn 0.3051 -0.1580 0.9391
vn -0.7989 -0.1580 0.5804
vn -0.7989 -0.1580 -0.5804
vn 0.3051 -0.1580 -0.9391
vn 0.7989 0.1580 0.5804
vn -0.3051 0.1580 0.9391
vn -0.9874 0.1580 -0.0000
vn -0.3051 0.1580 -0.9391
vn 0.7989 0.1580 -0.5804
vn 0.5451 0.7389 0.3961
vn -0.2082 0.7389 0.6408
vn -0.6738 0.7389 -0.0000
vn -0.2082 0.7389 -0.6408
vn 0.5451 0.7389 -0.3961
vt 0.526097 0.750000
vt 0.375000 1.000000
vt 0.375000 0.750000
vt 0.526097 0.000000
vt 0.375000 0.250000
vt 0.375000 0.000000
vt 0.375000 0.500000
vt 0.125000 0.750000
vt 0.125000 0.500000
vt 0.526097 0.500000
vt 0.858957 0.733957
vt 0.625000 0.750000
vt 0.641043 0.733957
vt 0.641043 0.516043
vt 0.858957 0.516043
vt 0.875000 0.750000
vt 0.875000 0.500000
vt 0.526097 0.250000
vt 0.526097 1.000000
vt 0.625000 0.500000
vt 0.600000 0.000000
vt 0.625000 0.250000
vt 0.600000 0.250000
vt 0.600000 0.500000
vt 0.600000 0.750000
vt 0.600000 1.000000
vt 0.625000 1.000000
vt 0.400000 1.000000
vt 0.425000 0.750000
vt 0.400000 0.750000
vt 0.450000 0.750000
vt 0.425000 1.000000
vt 0.475000 0.750000
vt 0.450000 1.000000
vt 0.500000 0.750000
vt 0.475000 1.000000
vt 0.525000 1.000000
vt 0.500000 1.000000
vt 0.550000 0.750000
vt 0.525000 0.750000
vt 0.575000 0.750000
vt 0.550000 1.000000
vt 0.575000 1.000000
vt 0.425000 0.500000
vt 0.400000 0.500000
vt 0.450000 0.500000
vt 0.475000 0.500000
vt 0.500000 0.500000
vt 0.550000 0.500000
vt 0.525000 0.500000
vt 0.575000 0.500000
vt 0.425000 0.250000
vt 0.400000 0.250000
vt 0.450000 0.250000
vt 0.475000 0.250000
vt 0.500000 0.250000
vt 0.550000 0.250000
vt 0.525000 0.250000
vt 0.575000 0.250000
vt 0.400000 0.000000
vt 0.450000 0.000000
vt 0.425000 0.000000
vt 0.475000 0.000000
vt 0.500000 0.000000
vt 0.550000 0.000000
vt 0.525000 0.000000
vt 0.575000 0.000000
vt 0.625000 0.000000
vt 0.666667 1.000000
vt 0.583333 1.000000
vt 1.000000 1.000000
vt 0.916667 0.500000
vt 1.000000 0.500000
vt 0.500000 1.000000
vt 0.416667 1.000000
vt 0.916667 1.000000
vt 0.833333 0.500000
vt 0.333333 1.000000
vt 0.250000 1.000000
vt 0.833333 1.000000
vt 0.750000 0.500000
vt 0.750000 1.000000
vt 0.666667 0.500000
vt 0.166667 1.000000
vt 0.083333 1.000000
vt 0.583333 0.500000
vt 0.000000 1.000000
vt 0.500000 0.500000
vt 0.416667 0.500000
vt 0.333333 0.500000
vt 0.250000 0.500000
vt 0.166667 0.500000
vt 0.042154 0.370000
vt 0.250000 0.010000
vt 0.457846 0.370000
vt 0.083333 0.500000
vt 0.000000 0.500000
vt 0.370000 0.457846
vt 0.250000 0.490000
vt 0.130000 0.457846
vt 0.010000 0.250000
vt 0.042154 0.130000
vt 0.130000 0.042154
vt 0.370000 0.042154
vt 0.457846 0.130000
vt 0.490000 0.250000
vt 0.181819 0.000000
vt 0.272728 0.157461
vt 0.090910 0.157461
vt 0.363637 0.000000
vt 0.454546 0.157461
vt 0.909091 0.000000
vt 1.000000 0.157461
vt 0.818182 0.157461
vt 0.727273 0.000000
vt 0.636364 0.157461
vt 0.545455 0.000000
vt 0.363637 0.314921
vt 0.181819 0.314921
vt 0.909091 0.314921
vt 0.727273 0.314921
vt 0.545455 0.314921
vt 0.000000 0.314921
vt 0.272728 0.472382
vt 0.090910 0.472382
vt 0.818182 0.472382
vt 0.636364 0.472382
vt 0.454546 0.472382
s 0
usemtl Material
f 8/1/1 4/2/1 2/3/1
f 12/4/2 3/5/2 4/6/2
f 1/7/3 4/8/3 3/9/3
f 6/10/4 2/3/4 1/7/4
f 11/11/5 8/12/5 7/13/5
f 7/13/6 6/10/6 5/14/6
f 9/15/7 12/16/7 11/11/7
f 5/14/8 10/17/8 9/15/8
f 10/18/9 1/7/9 3/5/9
f 8/1/1 12/19/1 4/2/1
f 12/4/2 10/18/2 3/5/2
f 1/7/3 2/3/3 4/8/3
f 6/10/4 8/1/4 2/3/4
f 11/11/5 12/16/5 8/12/5
f 7/13/6 8/1/6 6/10/6
f 9/15/7 10/17/7 12/16/7
f 5/14/8 6/20/8 10/17/8
f 10/18/9 6/10/9 1/7/9
f 5/14/10 57/13/10 7/13/10
f 11/11/11 60/15/11 9/15/11
f 29/21/12 16/22/12 30/23/12
f 16/22/13 39/24/13 30/23/13
f 20/20/14 48/25/14 39/24/14
f 18/12/15 29/26/15 48/25/15
f 18/12/16 121/27/16 14/27/16
f 17/3/17 21/28/17 13/2/17
f 55/29/18 21/28/18 56/30/18
f 54/31/19 22/32/19 55/29/19
f 53/33/20 23/34/20 54/31/20
f 52/35/21 24/36/21 53/33/21
f 52/35/22 26/37/22 25/38/22
f 50/39/23 26/37/23 51/40/23
f 49/41/24 27/42/24 50/39/24
f 48/25/25 28/43/25 49/41/25
f 19/7/26 56/30/26 17/3/26
f 46/44/27 56/30/27 47/45/27
f 45/46/28 55/29/28 46/44/28
f 44/47/29 54/31/29 45/46/29
f 43/48/30 53/33/30 44/47/30
f 43/48/31 51/40/31 52/35/31
f 41/49/32 51/40/32 42/50/32
f 40/51/33 50/39/33 41/49/33
f 39/24/34 49/41/34 40/51/34
f 15/5/35 47/45/35 19/7/35
f 37/52/36 47/45/36 38/53/36
f 36/54/37 46/44/37 37/52/37
f 35/55/38 45/46/38 36/54/38
f 34/56/39 44/47/39 35/55/39
f 34/56/40 42/50/40 43/48/40
f 32/57/41 42/50/41 33/58/41
f 31/59/42 41/49/42 32/57/42
f 30/23/43 40/51/43 31/59/43
f 13/6/44 38/53/44 15/5/44
f 21/60/45 37/52/45 38/53/45
f 23/61/46 37/52/46 22/62/46
f 24/63/47 36/54/47 23/61/47
f 25/64/48 35/55/48 24/63/48
f 25/64/49 33/58/49 34/56/49
f 27/65/50 33/58/50 26/66/50
f 27/65/51 31/59/51 32/57/51
f 29/21/52 31/59/52 28/67/52
f 59/14/53 60/15/53 58/11/53
f 59/14/53 58/11/53 57/13/53
f 7/13/54 58/11/54 11/11/54
f 9/15/55 59/14/55 5/14/55
f 29/21/12 14/68/12 16/22/12
f 16/22/13 20/20/13 39/24/13
f 20/20/14 18/12/14 48/25/14
f 18/12/15 14/27/15 29/26/15
f 14/68/56 122/22/56 16/22/56
f 17/3/17 56/30/17 21/28/17
f 55/29/18 22/32/18 21/28/18
f 54/31/19 23/34/19 22/32/19
f 53/33/20 24/36/20 23/34/20
f 52/35/21 25/38/21 24/36/21
f 52/35/22 51/40/22 26/37/22
f 50/39/23 27/42/23 26/37/23
f 49/41/24 28/43/24 27/42/24
f 48/25/25 29/26/25 28/43/25
f 19/7/26 47/45/26 56/30/26
f 46/44/27 55/29/27 56/30/27
f 45/46/28 54/31/28 55/29/28
f 44/47/29 53/33/29 54/31/29
f 43/48/30 52/35/30 53/33/30
f 43/48/31 42/50/31 51/40/31
f 41/49/32 50/39/32 51/40/32
f 40/51/33 49/41/33 50/39/33
f 39/24/34 48/25/34 49/41/34
f 15/5/35 38/53/35 47/45/35
f 37/52/36 46/44/36 47/45/36
f 36/54/37 45/46/37 46/44/37
f 35/55/38 44/47/38 45/46/38
f 34/56/39 43/48/39 44/47/39
f 34/56/40 33/58/40 42/50/40
f 32/57/41 41/49/41 42/50/41
f 31/59/42 40/51/42 41/49/42
f 30/23/43 39/24/43 40/51/43
f 13/6/44 21/60/44 38/53/44
f 21/60/45 22/62/45 37/52/45
f 23/61/46 36/54/46 37/52/46
f 24/63/47 35/55/47 36/54/47
f 25/64/48 34/56/48 35/55/48
f 25/64/49 26/66/49 33/58/49
f 27/65/50 32/57/50 33/58/50
f 27/65/51 28/67/51 31/59/51
f 29/21/52 30/23/52 31/59/52
f 72/69/57 90/70/57 74/70/57
f 64/71/58 65/72/58 63/73/58
f 76/74/59 92/75/59 78/75/59
f 66/76/60 67/77/60 65/72/60
f 80/78/61 94/79/61 82/79/61
f 68/80/62 69/81/62 67/77/62
f 64/71/63 62/76/63 66/76/63
f 70/82/64 71/83/64 69/81/64
f 84/84/65 96/85/65 86/85/65
f 72/69/66 73/86/66 71/83/66
f 86/85/67 61/87/67 64/87/67
f 74/70/68 75/88/68 73/86/68
f 66/76/69 87/80/69 68/80/69
f 76/74/70 77/89/70 75/88/70
f 72/69/71 88/82/71 89/69/71
f 78/75/72 79/90/72 77/89/72
f 76/74/73 90/70/73 91/74/73
f 80/78/74 81/91/74 79/90/74
f 78/75/75 93/78/75 80/78/75
f 82/79/76 83/92/76 81/91/76
f 84/84/77 94/79/77 95/84/77
f 95/93/53 91/94/53 87/95/53
f 84/84/78 85/96/78 83/92/78
f 68/80/79 88/82/79 70/82/79
f 86/85/80 63/97/80 85/96/80
f 103/68/2 102/5/2 104/6/2
f 101/22/9 98/7/9 102/5/9
f 97/20/4 100/3/4 98/7/4
f 99/12/1 104/2/1 100/3/1
f 98/7/3 104/8/3 102/9/3
f 99/12/1 106/27/1 103/27/1
f 108/22/9 111/20/9 107/20/9
f 99/12/1 113/12/1 105/12/1
f 106/27/1 120/27/1 103/27/1
f 101/22/9 107/20/9 97/20/9
f 112/17/53 109/12/53 111/20/53
f 105/12/1 110/27/1 106/27/1
f 106/68/2 112/22/2 108/22/2
f 107/20/4 109/12/4 105/12/4
f 108/22/53 116/68/53 106/68/53
f 97/20/3 117/12/3 99/12/3
f 101/22/9 115/22/9 108/22/9
f 103/68/3 119/22/3 101/22/3
f 107/20/9 118/20/9 97/20/9
f 105/12/53 114/20/53 107/20/53
f 120/27/2 115/22/2 119/22/2
f 118/20/4 113/12/4 117/12/4
f 122/17/53 124/12/53 123/20/53
f 122/17/53 121/16/53 124/12/53
f 16/22/81 123/20/81 20/20/81
f 20/20/82 124/12/82 18/12/82
f 72/69/57 89/69/57 90/70/57
f 64/71/58 66/76/58 65/72/58
f 76/74/59 91/74/59 92/75/59
f 66/76/60 68/80/60 67/77/60
f 80/78/61 93/78/61 94/79/61
f 68/80/62 70/82/62 69/81/62
f 64/71/63 61/71/63 62/76/63
f 70/82/64 72/69/64 71/83/64
f 84/84/65 95/84/65 96/85/65
f 72/69/66 74/70/66 73/86/66
f 86/85/67 96/85/67 61/87/67
f 74/70/68 76/74/68 75/88/68
f 66/76/69 62/76/69 87/80/69
f 76/74/70 78/75/70 77/89/70
f 72/69/71 70/82/71 88/82/71
f 78/75/72 80/78/72 79/90/72
f 76/74/73 74/70/73 90/70/73
f 80/78/74 82/79/74 81/91/74
f 78/75/75 92/75/75 93/78/75
f 82/79/76 84/84/76 83/92/76
f 84/84/77 82/79/77 94/79/77
f 87/95/53 62/98/53 61/99/53
f 61/99/53 96/100/53 95/93/53
f 95/93/53 94/101/53 93/102/53
f 93/102/53 92/103/53 91/94/53
f 91/94/53 90/104/53 89/105/53
f 89/105/53 88/106/53 87/95/53
f 87/95/53 61/99/53 95/93/53
f 95/93/53 93/102/53 91/94/53
f 91/94/53 89/105/53 87/95/53
f 84/84/78 86/85/78 85/96/78
f 68/80/79 87/80/79 88/82/79
f 86/85/80 64/87/80 63/97/80
f 125/107/83 126/108/83 127/109/83
f 126/108/84 125/110/84 130/111/84
f 125/112/85 127/113/85 128/114/85
f 125/115/86 128/114/86 129/116/86
f 125/117/87 129/116/87 130/111/87
f 126/108/88 130/111/88 135/118/88
f 127/109/89 126/108/89 131/119/89
f 128/114/90 127/113/90 132/120/90
f 129/116/91 128/114/91 133/121/91
f 130/111/92 129/116/92 134/122/92
f 126/108/93 135/118/93 131/119/93
f 127/109/94 131/119/94 132/123/94
f 128/114/95 132/120/95 133/121/95
f 129/116/96 133/121/96 134/122/96
f 130/111/97 134/122/97 135/118/97
f 131/119/98 135/118/98 136/124/98
f 132/123/99 131/119/99 136/125/99
f 133/121/100 132/120/100 136/126/100
f 134/122/101 133/121/101 136/127/101
f 135/118/102 134/122/102 136/128/102
f 103/68/2 101/22/2 102/5/2
f 101/22/9 97/20/9 98/7/9
f 97/20/4 99/12/4 100/3/4
f 99/12/1 103/27/1 104/2/1
f 98/7/3 100/3/3 104/8/3
f 99/12/1 105/12/1 106/27/1
f 108/22/9 112/22/9 111/20/9
f 99/12/1 117/12/1 113/12/1
f 106/27/1 116/27/1 120/27/1
f 101/22/9 108/22/9 107/20/9
f 112/17/53 110/16/53 109/12/53
f 105/12/1 109/12/1 110/27/1
f 106/68/2 110/68/2 112/22/2
f 107/20/4 111/20/4 109/12/4
f 108/22/53 115/22/53 116/68/53
f 97/20/3 118/20/3 117/12/3
f 101/22/9 119/22/9 115/22/9
f 103/68/3 120/68/3 119/22/3
f 107/20/9 114/20/9 118/20/9
f 105/12/53 113/12/53 114/20/53
f 120/27/2 116/68/2 115/22/2
f 118/20/4 114/20/4 113/12/4
f 5/14/10 59/14/10 57/13/10
f 11/11/11 58/11/11 60/15/11
f 7/13/54 57/13/54 58/11/54
f 9/15/55 60/15/55 59/14/55
f 18/12/16 124/12/16 121/27/16
f 14/68/56 121/68/56 122/22/56
f 16/22/81 122/22/81 123/20/81
f 20/20/82 123/20/82 124/12/82
