# Blender 4.0.2
# www.blender.org
mtllib knight_s.mtl
o Cube
v 1.000000 -1.000000 -1.000000
v 1.000000 -1.000000 1.000000
v -1.000000 -1.000000 -1.000000
v -1.000000 -1.000000 1.000000
v 0.871657 -0.675586 -0.871657
v 1.000000 -0.803929 -1.000000
v 0.871657 -0.675586 0.871657
v 1.000000 -0.803929 1.000000
v -0.885911 -0.675586 -0.871657
v -1.000004 -0.803929 -1.000000
v -0.885911 -0.675586 0.871657
v -1.000004 -0.803929 1.000000
v 0.665560 -0.413283 -0.415560
v 0.665560 -0.764624 -0.415560
v 0.665560 -0.413283 0.415560
v 0.665560 -0.764624 0.415560
v -0.753774 -0.413283 -0.415560
v -0.692467 -0.764624 -0.415560
v -0.753774 -0.413283 0.415560
v -0.692467 -0.764624 0.415560
v -0.051439 0.656568 0.415560
v -0.684726 0.656568 0.415560
v -0.051439 0.656568 -0.415560
v -0.684726 0.656568 -0.415560
v 0.434117 -0.183692 0.415560
v 0.129548 0.230001 0.415560
v -0.782650 0.280073 0.415560
v -0.782650 -0.183692 0.415560
v -0.782650 0.280073 -0.415560
v -0.782650 -0.183692 -0.415560
v 0.434117 -0.183692 -0.415560
v 0.129548 0.230001 -0.415560
v 0.348928 -0.068896 0.415560
v -0.787087 -0.068896 0.415560
v -0.787087 -0.068896 -0.415560
v 0.348928 -0.068896 -0.415560
v -0.671254 0.636577 0.337586
v -0.302552 1.430240 0.337586
v -0.671254 0.636577 -0.337586
v -0.302552 1.430240 -0.337586
v 0.111668 0.588962 0.337586
v 0.369312 1.351377 0.337586
v 0.111668 0.588962 -0.337586
v 0.369312 1.351377 -0.337586
v 0.052864 0.776552 0.196233
v 0.337605 1.342134 0.314369
v 0.052864 0.776552 -0.196233
v 0.337605 1.342134 -0.314369
v 0.837866 0.472227 0.164248
v 1.076196 0.984772 0.164248
v 0.837866 0.472227 -0.164248
v 1.076196 0.984772 -0.164248
v -0.507814 0.901132 0.337586
v -0.388395 1.165686 0.337586
v -0.388395 1.165686 -0.337586
v -0.507814 0.901131 -0.337586
v 0.347059 1.086823 -0.337586
v 0.408495 0.822269 -0.337586
v 0.347059 1.086823 0.337586
v 0.408495 0.822269 0.337586
v -0.122902 1.372410 0.328538
v -0.122902 1.433574 0.328538
v -0.122902 1.372410 0.111977
v -0.122902 1.433574 0.111977
v 0.122902 1.372410 0.328538
v 0.122902 1.618214 0.328538
v 0.122902 1.372410 0.111977
v 0.122902 1.618214 0.111977
v -0.122902 1.372410 -0.111977
v -0.122902 1.433574 -0.111977
v -0.122902 1.372410 -0.328538
v -0.122902 1.433574 -0.328538
v 0.122902 1.372410 -0.111977
v 0.122902 1.618214 -0.111977
v 0.122902 1.372410 -0.328538
v 0.122902 1.618214 -0.328538
v 0.630393 0.552659 -0.172702
v 0.880989 1.091583 -0.172702
v 0.630393 0.552659 0.172702
v 0.880989 1.091583 0.172702
v 0.525273 0.691890 -0.176985
v 0.782085 1.145701 0.176985
v 0.782085 1.145701 -0.176985
v 0.525273 0.691890 0.176985
v 0.232581 0.764453 -0.193482
v 0.454760 1.273125 0.193482
v 0.454760 1.273125 -0.193482
v 0.232581 0.764453 0.193482
vn 0.6507 0.3914 0.6507
vn -0.5773 -0.5774 0.5774
vn 0.5774 -0.5774 0.5774
vn -0.6506 0.3823 0.6562
vn -0.5773 -0.5774 -0.5774
vn 0.5774 -0.5774 -0.5774
vn 0.6507 0.3914 -0.6507
vn -0.3262 0.8973 0.2974
vn 0.3002 0.9054 0.3002
vn 0.3002 0.9054 -0.3002
vn -0.3262 0.8973 -0.2974
vn -0.6506 0.3823 -0.6562
vn -0.7258 0.0975 0.6809
vn 0.4410 0.6662 0.6014
vn -0.4930 0.6376 0.5919
vn 0.7169 0.2987 0.6299
vn -0.6594 -0.1151 0.7430
vn 0.7071 -0.0000 0.7071
vn 0.7169 0.2987 -0.6299
vn 0.7071 -0.0000 -0.7071
vn -0.6594 -0.1151 -0.7430
vn -0.7045 -0.1057 0.7018
vn -0.4930 0.6376 -0.5919
vn 0.4410 0.6662 -0.6014
vn -0.7258 0.0975 -0.6809
vn 0.5902 0.3358 -0.7341
vn 0.5902 0.3358 0.7341
vn -0.7045 -0.1057 -0.7018
vn 0.5210 0.4513 -0.7245
vn -0.7127 -0.0092 -0.7014
vn 0.5685 0.4195 -0.7077
vn 0.5210 0.4513 0.7245
vn 0.5685 0.4195 0.7077
vn -0.7142 -0.0586 -0.6975
vn -0.7127 -0.0092 0.7014
vn -0.7142 -0.0586 0.6975
vn -0.4364 0.6807 0.5884
vn -0.6476 0.2503 -0.7197
vn -0.6476 0.2503 0.7197
vn -0.4364 0.6807 -0.5884
vn 0.6666 0.0482 -0.7438
vn 0.6313 0.5158 -0.5791
vn 0.6666 0.0482 0.7438
vn 0.2302 -0.7373 -0.6352
vn -0.7380 -0.3827 0.5558
vn -0.7380 -0.3827 -0.5558
vn 0.6313 0.5158 0.5791
vn -0.0608 0.6472 0.7599
vn -0.7370 -0.4433 -0.5102
vn -0.7370 -0.4433 0.5102
vn 0.3626 0.6081 -0.7062
vn 0.3127 -0.7610 -0.5685
vn -0.4421 -0.6139 -0.6540
vn 0.7834 0.2513 -0.5685
vn 0.3127 -0.7610 0.5685
vn -0.0438 -0.7310 0.6810
vn -0.4421 -0.6139 0.6540
vn -0.0608 0.6472 -0.7599
vn 0.5669 0.5898 0.5751
vn 0.5669 0.5898 -0.5751
vn 0.2302 -0.7373 0.6352
vn -0.6109 0.3249 0.7220
vn 0.7519 -0.2645 0.6039
vn 0.7519 -0.2645 -0.6039
vn -0.6109 0.3249 -0.7220
vn -0.7026 0.3510 0.6190
vn -0.5774 -0.5774 -0.5774
vn -0.5774 -0.5774 0.5774
vn -0.7026 0.3510 -0.6190
vn 0.3730 0.7466 -0.5508
vn 0.3730 0.7466 0.5508
vn 0.7834 0.2513 0.5685
vn -0.3070 -0.5322 0.7890
vn -0.3070 -0.5322 -0.7890
vn -0.0438 -0.7310 -0.6810
vn 0.3299 0.6417 -0.6924
vn 0.3626 0.6081 0.7062
vn 0.3299 0.6417 0.6924
vt 0.526097 0.750000
vt 0.375000 1.000000
vt 0.375000 0.750000
vt 0.526097 0.000000
vt 0.375000 0.250000
vt 0.375000 0.000000
vt 0.375000 0.500000
vt 0.125000 0.750000
vt 0.125000 0.500000
vt 0.526097 0.500000
vt 0.858957 0.733957
vt 0.625000 0.750000
vt 0.641043 0.733957
vt 0.641043 0.516043
vt 0.858957 0.516043
vt 0.875000 0.750000
vt 0.875000 0.500000
vt 0.526097 0.250000
vt 0.526097 1.000000
vt 0.625000 0.500000
vt 0.625000 0.000000
vt 0.625000 1.000000
vt 0.625000 0.500000
vt 0.625000 0.500000
vt 0.541667 0.250000
vt 0.541667 0.000000
vt 0.625000 0.250000
vt 0.541667 0.500000
vt 0.541667 0.750000
vt 0.541667 1.000000
vt 0.625000 0.433926
vt 0.375000 0.433926
vt 0.375000 0.978499
vt 0.308926 0.750000
vt 0.308926 0.500000
vt 0.853499 0.750000
vt 0.853499 0.500000
vt 0.458333 1.000000
vt 0.458333 0.750000
vt 0.458333 0.500000
vt 0.458333 0.250000
vt 0.458333 0.000000
vt 0.691074 0.500000
vt 0.275449 0.750000
vt 0.275449 0.500000
vt 0.375000 0.816074
vt 0.375000 0.400449
vt 0.625000 0.271501
vt 0.375000 0.271501
vt 0.146501 0.750000
vt 0.146501 0.500000
vt 0.724551 0.500000
vt 0.691074 0.750000
vt 0.625000 0.816074
vt 0.375000 0.849551
vt 0.724551 0.750000
vt 0.625000 0.978499
vt 0.625000 0.400449
vt 0.625000 0.849551
s 1
usemtl Material
f 8/1/1 4/2/2 2/3/3
f 12/4/4 3/5/5 4/6/2
f 1/7/6 4/8/2 3/9/5
f 6/10/7 2/3/3 1/7/6
f 11/11/8 8/12/1 7/13/9
f 7/13/9 6/10/7 5/14/10
f 9/15/11 12/16/4 11/11/8
f 5/14/10 10/17/12 9/15/11
f 10/18/12 1/7/6 3/5/5
f 8/1/1 12/19/4 4/2/2
f 12/4/4 10/18/12 3/5/5
f 1/7/6 2/3/3 4/8/2
f 6/10/7 8/1/1 2/3/3
f 11/11/8 12/16/4 8/12/1
f 7/13/9 8/1/1 6/10/7
f 9/15/11 10/17/12 12/16/4
f 5/14/10 6/20/7 10/17/12
f 10/18/12 6/10/7 1/7/6
f 5/14/10 9/15/11 11/11/8
f 5/14/10 11/11/8 7/13/9
f 27/12/13 21/20/14 22/12/15
f 15/20/16 20/3/17 16/7/18
f 13/12/19 16/2/18 14/3/20
f 18/9/21 13/3/19 14/8/20
f 19/17/22 18/12/21 20/20/17
f 24/21/23 21/5/14 23/6/24
f 27/17/13 24/16/23 29/16/25
f 32/12/26 21/22/14 26/22/27
f 29/7/25 23/3/24 32/3/26
f 17/7/28 31/3/29 13/3/19
f 35/7/30 32/3/26 36/3/31
f 13/12/19 25/22/32 15/22/16
f 36/12/31 26/22/27 33/22/33
f 19/17/22 30/16/34 17/16/28
f 34/17/35 29/16/25 35/16/30
f 19/12/22 25/23/32 28/12/36
f 34/12/35 26/20/27 27/12/13
f 28/12/36 33/24/33 34/12/35
f 28/17/36 35/16/30 30/16/34
f 31/12/29 33/22/33 25/22/32
f 30/7/34 36/3/31 31/3/29
f 38/21/37 55/25/38 54/26/39
f 40/27/40 57/28/41 55/25/38
f 44/20/42 59/29/43 57/28/41
f 59/29/43 38/22/37 54/30/39
f 43/7/44 37/8/45 39/9/46
f 40/17/40 42/12/47 44/20/42
f 46/21/48 47/5/49 45/6/50
f 78/31/51 51/7/52 77/32/53
f 52/20/54 49/3/55 51/7/52
f 88/33/56 46/22/48 45/2/50
f 51/7/52 79/34/57 77/35/53
f 48/17/58 86/36/59 87/37/60
f 41/3/61 53/38/62 37/2/45
f 60/39/63 54/30/39 53/38/62
f 58/40/64 41/3/61 43/7/44
f 57/28/41 60/39/63 58/40/64
f 56/41/65 43/7/44 39/5/46
f 55/25/38 58/40/64 56/41/65
f 53/42/62 39/5/46 37/6/45
f 53/42/62 55/25/38 56/41/65
f 62/21/66 63/5/67 61/6/68
f 64/27/69 67/7/6 63/5/67
f 68/20/70 65/3/3 67/7/6
f 65/3/3 62/22/66 61/2/68
f 67/7/6 61/8/68 63/9/67
f 64/17/69 66/12/71 68/20/70
f 70/21/66 71/5/67 69/6/68
f 72/27/69 75/7/6 71/5/67
f 76/20/70 73/3/3 75/7/6
f 73/3/3 70/22/66 69/2/68
f 75/7/6 69/8/68 71/9/67
f 72/17/69 74/12/71 76/20/70
f 78/43/51 50/12/72 52/20/54
f 77/35/53 84/44/73 81/45/74
f 50/12/72 79/46/57 49/3/55
f 81/47/74 78/31/51 77/32/53
f 87/48/60 81/47/74 85/49/75
f 81/45/74 88/50/56 85/51/75
f 83/52/76 80/53/77 78/43/51
f 80/54/77 84/55/73 79/46/57
f 85/51/75 45/8/50 47/9/49
f 48/27/58 85/49/75 47/5/49
f 87/37/60 82/56/78 83/52/76
f 84/55/73 86/57/59 88/33/56
f 27/12/13 26/20/27 21/20/14
f 15/20/16 19/12/22 20/3/17
f 13/12/19 15/22/16 16/2/18
f 18/9/21 17/7/28 13/3/19
f 19/17/22 17/16/28 18/12/21
f 24/21/23 22/27/15 21/5/14
f 27/17/13 22/17/15 24/16/23
f 32/12/26 23/12/24 21/22/14
f 29/7/25 24/7/23 23/3/24
f 17/7/28 30/7/34 31/3/29
f 35/7/30 29/7/25 32/3/26
f 13/12/19 31/12/29 25/22/32
f 36/12/31 32/12/26 26/22/27
f 19/17/22 28/17/36 30/16/34
f 34/17/35 27/17/13 29/16/25
f 19/12/22 15/20/16 25/23/32
f 34/12/35 33/24/33 26/20/27
f 28/12/36 25/23/32 33/24/33
f 28/17/36 34/17/35 35/16/30
f 31/12/29 36/12/31 33/22/33
f 30/7/34 35/7/30 36/3/31
f 38/21/37 40/27/40 55/25/38
f 40/27/40 44/20/42 57/28/41
f 44/20/42 42/12/47 59/29/43
f 59/29/43 42/12/47 38/22/37
f 43/7/44 41/3/61 37/8/45
f 40/17/40 38/16/37 42/12/47
f 46/21/48 48/27/58 47/5/49
f 78/31/51 52/20/54 51/7/52
f 52/20/54 50/12/72 49/3/55
f 88/33/56 86/57/59 46/22/48
f 51/7/52 49/3/55 79/34/57
f 48/17/58 46/16/48 86/36/59
f 41/3/61 60/39/63 53/38/62
f 60/39/63 59/29/43 54/30/39
f 58/40/64 60/39/63 41/3/61
f 57/28/41 59/29/43 60/39/63
f 56/41/65 58/40/64 43/7/44
f 55/25/38 57/28/41 58/40/64
f 53/42/62 56/41/65 39/5/46
f 53/42/62 54/26/39 55/25/38
f 62/21/66 64/27/69 63/5/67
f 64/27/69 68/20/70 67/7/6
f 68/20/70 66/12/71 65/3/3
f 65/3/3 66/12/71 62/22/66
f 67/7/6 65/3/3 61/8/68
f 64/17/69 62/16/66 66/12/71
f 70/21/66 72/27/69 71/5/67
f 72/27/69 76/20/70 75/7/6
f 76/20/70 74/12/71 73/3/3
f 73/3/3 74/12/71 70/22/66
f 75/7/6 73/3/3 69/8/68
f 72/17/69 70/16/66 74/12/71
f 78/43/51 80/53/77 50/12/72
f 77/35/53 79/34/57 84/44/73
f 50/12/72 80/54/77 79/46/57
f 81/47/74 83/58/76 78/31/51
f 87/48/60 83/58/76 81/47/74
f 81/45/74 84/44/73 88/50/56
f 83/52/76 82/56/78 80/53/77
f 80/54/77 82/59/78 84/55/73
f 85/51/75 88/50/56 45/8/50
f 48/27/58 87/48/60 85/49/75
f 87/37/60 86/36/59 82/56/78
f 84/55/73 82/59/78 86/57/59
