# Blender 4.0.2
# www.blender.org
mtllib pawn_s.mtl
o Cube
v -0.437485 -0.675586 -0.437485
v 1.000000 -1.000000 -1.000000
v 0.437485 -0.675586 -0.437485
v 1.000000 -1.000000 1.000000
v -0.437485 -0.675586 0.437485
v -1.000000 -1.000000 -1.000000
v 0.437485 -0.675586 0.437485
v -1.000000 -1.000000 1.000000
v 0.871657 -0.675586 -0.871657
v 1.000000 -0.803929 -1.000000
v 0.871657 -0.675586 0.871657
v 1.000000 -0.803929 1.000000
v -0.871657 -0.675586 -0.871657
v -1.000000 -0.803929 -1.000000
v -0.871657 -0.675586 0.871657
v -1.000000 -0.803929 1.000000
v 0.437485 -0.283900 0.437485
v -0.437485 -0.283900 0.437485
v -0.437485 -0.283900 -0.437485
v 0.437485 -0.283900 -0.437485
v 0.586503 -0.283900 0.586503
v -0.586503 -0.283900 0.586503
v -0.586503 -0.283900 -0.586503
v 0.586503 -0.283900 -0.586503
v 0.586503 -0.159164 0.586503
v -0.586503 -0.159164 0.586503
v -0.586503 -0.159164 -0.586503
v 0.586503 -0.159164 -0.586503
v 0.419818 -0.159164 0.419818
v -0.419818 -0.159164 0.419818
v -0.419818 -0.159164 -0.419818
v 0.419818 -0.159164 -0.419818
v 0.419818 0.028232 0.419818
v -0.419818 0.028232 0.419818
v -0.419818 0.028232 -0.419818
v 0.419818 0.028232 -0.419818
v 0.579056 0.028232 0.579056
v -0.579056 0.028232 0.579056
v -0.579056 0.028232 -0.579056
v 0.579056 0.028232 -0.579056
v 0.579056 0.140620 0.579056
v -0.579056 0.140620 0.579056
v -0.579056 0.140620 -0.579056
v 0.579056 0.140620 -0.579056
v 0.436079 0.140620 0.436079
v -0.436079 0.140620 0.436079
v -0.436079 0.140620 -0.436079
v 0.436079 0.140620 -0.436079
v 0.436079 0.417059 0.436079
v -0.436079 0.417059 0.436079
v -0.436079 0.417059 -0.436079
v 0.436079 0.417059 -0.436079
v 0.323038 0.575644 0.323038
v -0.323038 0.575644 0.323038
v -0.323038 0.575644 -0.323038
v 0.323038 0.575644 -0.323038
v 0.000000 1.255603 -0.485914
v 0.000000 1.054330 -0.525950
v 0.000000 0.853058 -0.485914
v 0.000000 0.568416 -0.201272
v 0.077024 1.540245 -0.185951
v 0.142321 1.426233 -0.343593
v 0.185951 1.255603 -0.448926
v 0.201272 1.054330 -0.485914
v 0.185951 0.853058 -0.448926
v 0.142321 0.682427 -0.343593
v 0.077024 0.568416 -0.185951
v 0.142321 1.540245 -0.142321
v 0.262975 1.426233 -0.262975
v 0.343593 1.255603 -0.343593
v 0.371903 1.054330 -0.371903
v 0.343593 0.853058 -0.343593
v 0.262975 0.682427 -0.262975
v 0.142321 0.568416 -0.142321
v 0.185951 1.540245 -0.077024
v 0.343593 1.426233 -0.142321
v 0.448926 1.255603 -0.185951
v 0.485914 1.054330 -0.201272
v 0.448926 0.853058 -0.185951
v 0.343593 0.682427 -0.142321
v 0.185951 0.568416 -0.077024
v 0.201272 1.540245 -0.000000
v 0.371903 1.426233 0.000000
v 0.485914 1.255603 0.000000
v 0.525950 1.054330 0.000000
v 0.485914 0.853058 0.000000
v 0.371903 0.682427 0.000000
v 0.201272 0.568416 -0.000000
v 0.185951 1.540245 0.077024
v 0.343593 1.426233 0.142321
v 0.448926 1.255603 0.185951
v 0.485914 1.054330 0.201272
v 0.448926 0.853058 0.185951
v 0.343593 0.682427 0.142321
v 0.185951 0.568416 0.077024
v 0.142321 1.540245 0.142321
v 0.262975 1.426233 0.262975
v 0.343593 1.255603 0.343593
v 0.371903 1.054330 0.371903
v 0.343593 0.853058 0.343593
v 0.262975 0.682427 0.262975
v 0.142321 0.568416 0.142321
v 0.077024 1.540245 0.185951
v 0.142321 1.426233 0.343593
v 0.185951 1.255603 0.448926
v 0.201272 1.054330 0.485914
v 0.185951 0.853058 0.448926
v 0.142321 0.682427 0.343593
v 0.077024 0.568416 0.185951
v -0.000000 1.540245 0.201272
v -0.000000 1.426233 0.371903
v -0.000000 1.255603 0.485914
v -0.000000 1.054330 0.525950
v -0.000000 0.853058 0.485914
v -0.000000 0.682427 0.371903
v -0.000000 0.568416 0.201272
v 0.000000 0.528380 -0.000000
v 0.000000 1.580280 -0.000000
v -0.077024 1.540245 0.185951
v -0.142321 1.426233 0.343593
v -0.185951 1.255603 0.448926
v -0.201273 1.054330 0.485914
v -0.185951 0.853058 0.448926
v -0.142321 0.682427 0.343593
v -0.077024 0.568416 0.185951
v -0.142321 1.540245 0.142321
v -0.262975 1.426233 0.262975
v -0.343593 1.255603 0.343593
v -0.371903 1.054330 0.371903
v -0.343593 0.853058 0.343593
v -0.262975 0.682427 0.262975
v -0.142321 0.568416 0.142321
v -0.185951 1.540245 0.077023
v -0.343593 1.426233 0.142321
v -0.448926 1.255603 0.185951
v -0.485914 1.054330 0.201272
v -0.448926 0.853058 0.185951
v -0.343593 0.682427 0.142321
v -0.185951 0.568416 0.077023
v -0.201272 1.540245 -0.000000
v -0.371903 1.426233 -0.000000
v -0.485914 1.255603 -0.000000
v -0.525950 1.054330 -0.000000
v -0.485914 0.853058 -0.000000
v -0.371903 0.682427 -0.000000
v -0.201272 0.568416 -0.000000
v -0.185951 1.540245 -0.077024
v -0.343593 1.426233 -0.142321
v -0.448926 1.255603 -0.185952
v -0.485914 1.054330 -0.201273
v -0.448926 0.853058 -0.185952
v -0.343593 0.682427 -0.142321
v -0.185951 0.568416 -0.077024
v -0.142321 1.540245 -0.142321
v -0.262975 1.426233 -0.262975
v -0.343593 1.255603 -0.343594
v -0.371903 1.054330 -0.371903
v -0.343593 0.853058 -0.343594
v -0.262975 0.682427 -0.262975
v -0.142321 0.568416 -0.142321
v -0.077023 1.540245 -0.185952
v -0.142321 1.426233 -0.343593
v -0.185951 1.255603 -0.448926
v -0.201272 1.054330 -0.485915
v -0.185951 0.853058 -0.448926
v -0.142321 0.682427 -0.343593
v -0.077023 0.568416 -0.185952
v 0.000000 1.540245 -0.201272
v 0.000000 1.426233 -0.371903
v 0.000000 0.682427 -0.371903
vn 0.6507 0.3914 0.6507
vn -0.5774 -0.5774 0.5774
vn 0.5774 -0.5774 0.5774
vn -0.6507 0.3914 0.6507
vn -0.5774 -0.5774 -0.5774
vn 0.3015 0.9045 -0.3015
vn 0.3015 -0.9045 0.3015
vn 0.3015 0.9045 0.3015
vn 0.5774 -0.5774 -0.5774
vn -0.3002 0.9054 -0.3002
vn 0.3002 0.9054 -0.3002
vn 0.6507 0.3914 -0.6507
vn -0.3002 0.9054 0.3002
vn 0.3002 0.9054 0.3002
vn -0.6507 0.3914 -0.6507
vn -0.3015 0.9045 -0.3015
vn -0.3015 0.9045 0.3015
vn -0.3015 -0.9045 0.3015
vn -0.3015 -0.9045 -0.3015
vn 0.3015 -0.9045 -0.3015
vn 0.5774 0.5774 -0.5774
vn 0.5774 0.5774 0.5774
vn -0.5774 0.5774 0.5774
vn -0.5774 0.5774 -0.5774
vn -0.5774 0.5774 0.5773
vn 0.6665 0.3339 0.6665
vn -0.6665 0.3339 -0.6665
vn 0.3651 0.8564 -0.3651
vn 0.6665 0.3339 -0.6665
vn -0.6665 0.3339 0.6665
vn -0.3651 0.8564 -0.3651
vn 0.3651 0.8564 0.3651
vn -0.3651 0.8564 0.3651
vn -0.0000 -0.6952 -0.7189
vn 0.1543 -0.9152 -0.3724
vn -0.0000 -0.9152 -0.4031
vn -0.0000 -0.0000 -1.0000
vn 0.3549 -0.3744 -0.8567
vn -0.0000 -0.3744 -0.9273
vn -0.0000 0.6952 -0.7189
vn 0.3549 0.3744 -0.8567
vn -0.0000 0.3744 -0.9273
vn -0.0000 0.9152 -0.4031
vn -0.0000 1.0000 -0.0000
vn 0.1543 0.9152 -0.3724
vn -0.0000 -1.0000 -0.0000
vn 0.2751 -0.6952 -0.6641
vn 0.3827 -0.0000 -0.9239
vn 0.2751 0.6952 -0.6641
vn 0.5083 0.6952 -0.5083
vn 0.6557 0.3744 -0.6557
vn 0.2850 0.9152 -0.2850
vn 0.2850 -0.9152 -0.2850
vn 0.5083 -0.6952 -0.5083
vn 0.7071 -0.0000 -0.7071
vn 0.6557 -0.3744 -0.6557
vn 0.3724 -0.9152 -0.1543
vn 0.6641 -0.6952 -0.2751
vn 0.9239 -0.0000 -0.3827
vn 0.6641 0.6952 -0.2751
vn 0.8567 -0.3744 -0.3549
vn 0.8567 0.3744 -0.3549
vn 0.3724 0.9152 -0.1543
vn 0.7189 0.6952 -0.0000
vn 0.4031 -0.9152 -0.0000
vn 0.9273 -0.3744 -0.0000
vn 0.9273 0.3744 -0.0000
vn 0.4031 0.9152 -0.0000
vn 0.7189 -0.6952 -0.0000
vn 1.0000 -0.0000 -0.0000
vn 0.3724 -0.9152 0.1543
vn 0.9239 -0.0000 0.3827
vn 0.8567 -0.3744 0.3549
vn 0.8567 0.3744 0.3549
vn 0.3724 0.9152 0.1543
vn 0.6641 -0.6952 0.2751
vn 0.6641 0.6952 0.2751
vn 0.2850 0.9152 0.2850
vn 0.2850 -0.9152 0.2850
vn 0.5083 -0.6952 0.5083
vn 0.7071 -0.0000 0.7071
vn 0.5083 0.6952 0.5083
vn 0.6557 -0.3744 0.6557
vn 0.6557 0.3744 0.6557
vn 0.3549 -0.3744 0.8567
vn 0.2751 -0.6952 0.6641
vn 0.3549 0.3744 0.8567
vn 0.3827 -0.0000 0.9239
vn 0.1543 0.9152 0.3724
vn 0.2751 0.6952 0.6641
vn 0.1543 -0.9152 0.3724
vn -0.0000 -0.9152 0.4031
vn -0.0000 -0.3744 0.9273
vn -0.0000 0.3744 0.9273
vn -0.0000 0.9152 0.4031
vn -0.0000 -0.6952 0.7189
vn -0.0000 -0.0000 1.0000
vn -0.0000 0.6952 0.7189
vn -0.3549 -0.3744 0.8567
vn -0.3549 0.3744 0.8567
vn -0.1543 0.9152 0.3724
vn -0.1543 -0.9152 0.3724
vn -0.2751 -0.6952 0.6641
vn -0.3827 -0.0000 0.9239
vn -0.2751 0.6952 0.6641
vn -0.2850 -0.9152 0.2850
vn -0.6557 -0.3744 0.6557
vn -0.5083 -0.6952 0.5083
vn -0.6557 0.3744 0.6557
vn -0.7071 -0.0000 0.7071
vn -0.5083 0.6952 0.5083
vn -0.2850 0.9152 0.2850
vn -0.8567 0.3744 0.3549
vn -0.9239 -0.0000 0.3827
vn -0.6641 0.6952 0.2751
vn -0.3724 -0.9152 0.1543
vn -0.8567 -0.3744 0.3549
vn -0.3724 0.9152 0.1543
vn -0.6641 -0.6952 0.2751
vn -0.4031 -0.9152 -0.0000
vn -0.9273 -0.3744 -0.0000
vn -0.9273 0.3744 -0.0000
vn -0.4031 0.9152 -0.0000
vn -0.7189 -0.6952 -0.0000
vn -1.0000 -0.0000 -0.0000
vn -0.7189 0.6952 -0.0000
vn -0.8567 0.3744 -0.3549
vn -0.3724 0.9152 -0.1543
vn -0.3724 -0.9152 -0.1543
vn -0.8567 -0.3744 -0.3549
vn -0.6641 -0.6952 -0.2751
vn -0.9239 -0.0000 -0.3827
vn -0.6641 0.6952 -0.2751
vn -0.2850 -0.9152 -0.2850
vn -0.6557 -0.3744 -0.6557
vn -0.5083 -0.6952 -0.5083
vn -0.6557 0.3744 -0.6557
vn -0.7071 -0.0000 -0.7071
vn -0.5083 0.6952 -0.5083
vn -0.2850 0.9152 -0.2850
vn -0.2751 0.6952 -0.6641
vn -0.1543 -0.9152 -0.3724
vn -0.3549 -0.3744 -0.8567
vn -0.3549 0.3744 -0.8567
vn -0.1543 0.9152 -0.3724
vn -0.2751 -0.6952 -0.6641
vn -0.3827 -0.0000 -0.9239
vt 0.526097 0.750000
vt 0.375000 1.000000
vt 0.375000 0.750000
vt 0.526097 0.000000
vt 0.375000 0.250000
vt 0.375000 0.000000
vt 0.641043 0.516043
vt 0.641043 0.733957
vt 0.375000 0.500000
vt 0.125000 0.750000
vt 0.125000 0.500000
vt 0.858957 0.516043
vt 0.526097 0.500000
vt 0.858957 0.733957
vt 0.625000 0.750000
vt 0.875000 0.750000
vt 0.875000 0.500000
vt 0.526097 0.250000
vt 0.750000 0.250000
vt 0.687500 0.125000
vt 0.750000 0.125000
vt 0.750000 0.500000
vt 0.687500 0.375000
vt 0.750000 0.375000
vt 0.750000 0.750000
vt 0.687500 0.625000
vt 0.750000 0.625000
vt 0.750000 0.875000
vt 0.718750 1.000000
vt 0.687500 0.875000
vt 0.718750 0.000000
vt 0.687500 0.250000
vt 0.687500 0.500000
vt 0.687500 0.750000
vt 0.625000 0.750000
vt 0.625000 0.625000
vt 0.656250 1.000000
vt 0.625000 0.875000
vt 0.656250 0.000000
vt 0.625000 0.125000
vt 0.625000 0.250000
vt 0.625000 0.500000
vt 0.625000 0.375000
vt 0.593750 0.000000
vt 0.562500 0.125000
vt 0.562500 0.250000
vt 0.562500 0.500000
vt 0.562500 0.750000
vt 0.562500 0.375000
vt 0.562500 0.625000
vt 0.593750 1.000000
vt 0.562500 0.875000
vt 0.500000 0.750000
vt 0.500000 0.125000
vt 0.500000 0.375000
vt 0.500000 0.625000
vt 0.531250 1.000000
vt 0.500000 0.875000
vt 0.531250 0.000000
vt 0.500000 0.250000
vt 0.500000 0.500000
vt 0.437500 0.125000
vt 0.437500 0.500000
vt 0.437500 0.375000
vt 0.437500 0.625000
vt 0.468750 1.000000
vt 0.437500 0.875000
vt 0.468750 0.000000
vt 0.437500 0.250000
vt 0.437500 0.750000
vt 0.406250 1.000000
vt 0.375000 0.875000
vt 0.406250 0.000000
vt 0.375000 0.125000
vt 0.375000 0.250000
vt 0.375000 0.500000
vt 0.375000 0.750000
vt 0.375000 0.375000
vt 0.375000 0.625000
vt 0.312500 0.375000
vt 0.312500 0.250000
vt 0.312500 0.625000
vt 0.312500 0.500000
vt 0.312500 0.875000
vt 0.312500 0.750000
vt 0.312500 0.125000
vt 0.343750 1.000000
vt 0.343750 0.000000
vt 0.250000 0.125000
vt 0.250000 0.375000
vt 0.250000 0.625000
vt 0.281250 1.000000
vt 0.250000 0.875000
vt 0.281250 0.000000
vt 0.250000 0.250000
vt 0.250000 0.500000
vt 0.250000 0.750000
vt 0.187500 0.375000
vt 0.187500 0.625000
vt 0.218750 1.000000
vt 0.187500 0.875000
vt 0.218750 0.000000
vt 0.187500 0.125000
vt 0.187500 0.250000
vt 0.187500 0.500000
vt 0.187500 0.750000
vt 0.156250 0.000000
vt 0.125000 0.125000
vt 0.125000 0.375000
vt 0.125000 0.250000
vt 0.125000 0.625000
vt 0.125000 0.500000
vt 0.125000 0.750000
vt 0.156250 1.000000
vt 0.125000 0.875000
vt 0.062500 0.625000
vt 0.062500 0.500000
vt 0.062500 0.750000
vt 0.062500 0.125000
vt 0.062500 0.375000
vt 0.093750 1.000000
vt 0.062500 0.875000
vt 0.093750 0.000000
vt 0.062500 0.250000
vt 0.000000 0.125000
vt 0.000000 0.375000
vt 0.000000 0.625000
vt 0.031250 1.000000
vt 0.000000 0.875000
vt 0.031250 0.000000
vt 0.000000 0.250000
vt 0.000000 0.500000
vt 0.000000 0.750000
vt 1.000000 0.750000
vt 0.937500 0.625000
vt 1.000000 0.625000
vt 1.000000 0.875000
vt 0.968750 1.000000
vt 0.937500 0.875000
vt 0.968750 0.000000
vt 1.000000 0.125000
vt 0.937500 0.125000
vt 1.000000 0.250000
vt 0.937500 0.375000
vt 0.937500 0.250000
vt 1.000000 0.500000
vt 0.937500 0.500000
vt 0.937500 0.750000
vt 1.000000 0.375000
vt 0.906250 0.000000
vt 0.875000 0.125000
vt 0.875000 0.375000
vt 0.875000 0.250000
vt 0.875000 0.625000
vt 0.875000 0.500000
vt 0.875000 0.750000
vt 0.906250 1.000000
vt 0.875000 0.875000
vt 0.812500 0.750000
vt 0.812500 0.125000
vt 0.812500 0.375000
vt 0.812500 0.625000
vt 0.843750 1.000000
vt 0.812500 0.875000
vt 0.843750 0.000000
vt 0.812500 0.250000
vt 0.812500 0.500000
vt 0.781250 1.000000
vt 0.781250 0.000000
vt 0.526097 1.000000
s 1
usemtl Material
f 12/1/1 8/2/2 4/3/3
f 16/4/4 6/5/5 8/6/2
f 3/7/6 17/8/7 7/8/8
f 2/9/9 8/10/2 6/11/5
f 13/12/10 3/7/6 9/7/11
f 10/13/12 4/3/3 2/9/9
f 15/14/13 12/15/1 11/8/14
f 11/8/14 10/13/12 9/7/11
f 13/12/10 16/16/4 15/14/13
f 9/7/11 14/17/15 13/12/10
f 14/18/15 2/9/9 6/5/5
f 15/14/13 1/12/16 13/12/10
f 9/7/11 7/8/8 11/8/14
f 11/8/14 5/14/17 15/14/13
f 18/14/18 23/12/5 19/12/19
f 5/14/17 19/12/19 1/12/16
f 7/8/8 18/14/18 5/14/17
f 1/12/16 20/7/20 3/7/6
f 23/12/5 28/7/21 24/7/9
f 19/12/19 24/7/9 20/7/20
f 17/8/7 22/14/2 18/14/18
f 20/7/20 21/8/3 17/8/7
f 28/7/21 29/8/8 25/8/22
f 21/8/3 26/14/23 22/14/2
f 24/7/9 25/8/22 21/8/3
f 22/14/2 27/12/24 23/12/5
f 31/12/16 36/7/20 32/7/6
f 26/14/23 31/12/16 27/12/24
f 27/12/24 32/7/6 28/7/21
f 25/8/22 30/14/17 26/14/23
f 35/12/19 40/7/9 36/7/20
f 29/8/8 34/14/18 30/14/17
f 32/7/6 33/8/7 29/8/8
f 30/14/17 35/12/19 31/12/16
f 39/12/5 44/7/21 40/7/9
f 33/8/7 38/14/2 34/14/18
f 36/7/20 37/8/3 33/8/7
f 34/14/18 39/12/5 35/12/19
f 43/12/24 48/7/6 44/7/21
f 37/8/3 42/14/25 38/14/2
f 40/7/9 41/8/22 37/8/3
f 38/14/2 43/12/24 39/12/5
f 48/7/6 49/8/26 45/8/8
f 41/8/22 46/14/17 42/14/25
f 44/7/21 45/8/8 41/8/22
f 42/14/25 47/12/16 43/12/24
f 51/12/27 56/7/28 52/7/29
f 46/14/17 51/12/27 47/12/16
f 47/12/16 52/7/29 48/7/6
f 45/8/8 50/14/30 46/14/17
f 55/12/31 53/8/32 56/7/28
f 49/8/26 54/14/33 50/14/30
f 52/7/29 53/8/32 49/8/26
f 50/14/30 55/12/31 51/12/27
f 170/19/34 67/20/35 60/21/36
f 58/22/37 65/23/38 59/24/39
f 169/25/40 63/26/41 57/27/42
f 168/28/43 118/29/44 61/30/45
f 117/31/46 60/21/36 67/20/35
f 170/19/34 65/23/38 66/32/47
f 57/27/42 64/33/48 58/22/37
f 168/28/43 62/34/49 169/25/40
f 63/26/41 69/35/50 70/36/51
f 61/30/45 118/37/44 68/38/52
f 117/39/46 67/20/35 74/40/53
f 65/23/38 73/41/54 66/32/47
f 63/26/41 71/42/55 64/33/48
f 62/34/49 68/38/52 69/35/50
f 66/32/47 74/40/53 67/20/35
f 64/33/48 72/43/56 65/23/38
f 117/44/46 74/40/53 81/45/57
f 72/43/56 80/46/58 73/41/54
f 70/36/51 78/47/59 71/42/55
f 68/38/52 76/48/60 69/35/50
f 73/41/54 81/45/57 74/40/53
f 71/42/55 79/49/61 72/43/56
f 70/36/51 76/48/60 77/50/62
f 68/38/52 118/51/44 75/52/63
f 75/52/63 83/53/64 76/48/60
f 80/46/58 88/54/65 81/45/57
f 78/47/59 86/55/66 79/49/61
f 76/48/60 84/56/67 77/50/62
f 75/52/63 118/57/44 82/58/68
f 117/59/46 81/45/57 88/54/65
f 79/49/61 87/60/69 80/46/58
f 77/50/62 85/61/70 78/47/59
f 87/60/69 95/62/71 88/54/65
f 86/55/66 92/63/72 93/64/73
f 83/53/64 91/65/74 84/56/67
f 82/58/68 118/66/44 89/67/75
f 117/68/46 88/54/65 95/62/71
f 86/55/66 94/69/76 87/60/69
f 84/56/67 92/63/72 85/61/70
f 82/58/68 90/70/77 83/53/64
f 89/67/75 118/71/44 96/72/78
f 117/73/46 95/62/71 102/74/79
f 93/64/73 101/75/80 94/69/76
f 91/65/74 99/76/81 92/63/72
f 89/67/75 97/77/82 90/70/77
f 94/69/76 102/74/79 95/62/71
f 92/63/72 100/78/83 93/64/73
f 90/70/77 98/79/84 91/65/74
f 101/75/80 107/80/85 108/81/86
f 99/76/81 105/82/87 106/83/88
f 97/77/82 103/84/89 104/85/90
f 101/75/80 109/86/91 102/74/79
f 99/76/81 107/80/85 100/78/83
f 97/77/82 105/82/87 98/79/84
f 96/72/78 118/87/44 103/84/89
f 117/88/46 102/74/79 109/86/91
f 108/81/86 116/89/92 109/86/91
f 106/83/88 114/90/93 107/80/85
f 104/85/90 112/91/94 105/82/87
f 103/84/89 118/92/44 110/93/95
f 117/94/46 109/86/91 116/89/92
f 108/81/86 114/90/93 115/95/96
f 105/82/87 113/96/97 106/83/88
f 103/84/89 111/97/98 104/85/90
f 113/96/97 123/98/99 114/90/93
f 111/97/98 121/99/100 112/91/94
f 110/93/95 118/100/44 119/101/101
f 117/102/46 116/89/92 125/103/102
f 114/90/93 124/104/103 115/95/96
f 113/96/97 121/99/100 122/105/104
f 110/93/95 120/106/105 111/97/98
f 115/95/96 125/103/102 116/89/92
f 117/107/46 125/103/102 132/108/106
f 124/104/103 130/109/107 131/110/108
f 122/105/104 128/111/109 129/112/110
f 119/101/101 127/113/111 120/106/105
f 124/104/103 132/108/106 125/103/102
f 122/105/104 130/109/107 123/98/99
f 120/106/105 128/111/109 121/99/100
f 119/101/101 118/114/44 126/115/112
f 129/112/110 135/116/113 136/117/114
f 126/115/112 134/118/115 127/113/111
f 131/110/108 139/119/116 132/108/106
f 129/112/110 137/120/117 130/109/107
f 127/113/111 135/116/113 128/111/109
f 126/115/112 118/121/44 133/122/118
f 117/123/46 132/108/106 139/119/116
f 131/110/108 137/120/117 138/124/119
f 138/124/119 146/125/120 139/119/116
f 136/117/114 144/126/121 137/120/117
f 134/118/115 142/127/122 135/116/113
f 133/122/118 118/128/44 140/129/123
f 117/130/46 139/119/116 146/125/120
f 137/120/117 145/131/124 138/124/119
f 136/117/114 142/127/122 143/132/125
f 133/122/118 141/133/126 134/118/115
f 141/134/126 149/135/127 142/136/122
f 140/137/123 118/138/44 147/139/128
f 117/140/46 146/141/120 153/142/129
f 145/143/124 151/144/130 152/145/131
f 143/146/125 149/135/127 150/147/132
f 140/137/123 148/148/133 141/134/126
f 145/143/124 153/142/129 146/141/120
f 143/146/125 151/144/130 144/149/121
f 117/150/46 153/142/129 160/151/134
f 152/145/131 158/152/135 159/153/136
f 150/147/132 156/154/137 157/155/138
f 147/139/128 155/156/139 148/148/133
f 152/145/131 160/151/134 153/142/129
f 150/147/132 158/152/135 151/144/130
f 148/148/133 156/154/137 149/135/127
f 147/139/128 118/157/44 154/158/140
f 154/158/140 162/159/141 155/156/139
f 159/153/136 167/160/142 160/151/134
f 157/155/138 165/161/143 158/152/135
f 155/156/139 163/162/144 156/154/137
f 154/158/140 118/163/44 161/164/145
f 117/165/46 160/151/134 167/160/142
f 159/153/136 165/161/143 166/166/146
f 157/155/138 163/162/144 164/167/147
f 166/166/146 60/21/36 167/160/142
f 164/167/147 59/24/39 165/161/143
f 162/159/141 57/27/42 163/162/144
f 161/164/145 118/168/44 168/28/43
f 117/169/46 167/160/142 60/21/36
f 166/166/146 59/24/39 170/19/34
f 164/167/147 57/27/42 58/22/37
f 161/164/145 169/25/40 162/159/141
f 12/1/1 16/170/4 8/2/2
f 16/4/4 14/18/15 6/5/5
f 3/7/6 20/7/20 17/8/7
f 2/9/9 4/3/3 8/10/2
f 13/12/10 1/12/16 3/7/6
f 10/13/12 12/1/1 4/3/3
f 15/14/13 16/16/4 12/15/1
f 11/8/14 12/1/1 10/13/12
f 13/12/10 14/17/15 16/16/4
f 9/7/11 10/42/12 14/17/15
f 14/18/15 10/13/12 2/9/9
f 15/14/13 5/14/17 1/12/16
f 9/7/11 3/7/6 7/8/8
f 11/8/14 7/8/8 5/14/17
f 18/14/18 22/14/2 23/12/5
f 5/14/17 18/14/18 19/12/19
f 7/8/8 17/8/7 18/14/18
f 1/12/16 19/12/19 20/7/20
f 23/12/5 27/12/24 28/7/21
f 19/12/19 23/12/5 24/7/9
f 17/8/7 21/8/3 22/14/2
f 20/7/20 24/7/9 21/8/3
f 28/7/21 32/7/6 29/8/8
f 21/8/3 25/8/22 26/14/23
f 24/7/9 28/7/21 25/8/22
f 22/14/2 26/14/23 27/12/24
f 31/12/16 35/12/19 36/7/20
f 26/14/23 30/14/17 31/12/16
f 27/12/24 31/12/16 32/7/6
f 25/8/22 29/8/8 30/14/17
f 35/12/19 39/12/5 40/7/9
f 29/8/8 33/8/7 34/14/18
f 32/7/6 36/7/20 33/8/7
f 30/14/17 34/14/18 35/12/19
f 39/12/5 43/12/24 44/7/21
f 33/8/7 37/8/3 38/14/2
f 36/7/20 40/7/9 37/8/3
f 34/14/18 38/14/2 39/12/5
f 43/12/24 47/12/16 48/7/6
f 37/8/3 41/8/22 42/14/25
f 40/7/9 44/7/21 41/8/22
f 38/14/2 42/14/25 43/12/24
f 48/7/6 52/7/29 49/8/26
f 41/8/22 45/8/8 46/14/17
f 44/7/21 48/7/6 45/8/8
f 42/14/25 46/14/17 47/12/16
f 51/12/27 55/12/31 56/7/28
f 46/14/17 50/14/30 51/12/27
f 47/12/16 51/12/27 52/7/29
f 45/8/8 49/8/26 50/14/30
f 55/12/31 54/14/33 53/8/32
f 49/8/26 53/8/32 54/14/33
f 52/7/29 56/7/28 53/8/32
f 50/14/30 54/14/33 55/12/31
f 170/19/34 66/32/47 67/20/35
f 58/22/37 64/33/48 65/23/38
f 169/25/40 62/34/49 63/26/41
f 170/19/34 59/24/39 65/23/38
f 57/27/42 63/26/41 64/33/48
f 168/28/43 61/30/45 62/34/49
f 63/26/41 62/34/49 69/35/50
f 65/23/38 72/43/56 73/41/54
f 63/26/41 70/36/51 71/42/55
f 62/34/49 61/30/45 68/38/52
f 66/32/47 73/41/54 74/40/53
f 64/33/48 71/42/55 72/43/56
f 72/43/56 79/49/61 80/46/58
f 70/36/51 77/50/62 78/47/59
f 68/38/52 75/52/63 76/48/60
f 73/41/54 80/46/58 81/45/57
f 71/42/55 78/47/59 79/49/61
f 70/36/51 69/35/50 76/48/60
f 75/52/63 82/58/68 83/53/64
f 80/46/58 87/60/69 88/54/65
f 78/47/59 85/61/70 86/55/66
f 76/48/60 83/53/64 84/56/67
f 79/49/61 86/55/66 87/60/69
f 77/50/62 84/56/67 85/61/70
f 87/60/69 94/69/76 95/62/71
f 86/55/66 85/61/70 92/63/72
f 83/53/64 90/70/77 91/65/74
f 86/55/66 93/64/73 94/69/76
f 84/56/67 91/65/74 92/63/72
f 82/58/68 89/67/75 90/70/77
f 93/64/73 100/78/83 101/75/80
f 91/65/74 98/79/84 99/76/81
f 89/67/75 96/72/78 97/77/82
f 94/69/76 101/75/80 102/74/79
f 92/63/72 99/76/81 100/78/83
f 90/70/77 97/77/82 98/79/84
f 101/75/80 100/78/83 107/80/85
f 99/76/81 98/79/84 105/82/87
f 97/77/82 96/72/78 103/84/89
f 101/75/80 108/81/86 109/86/91
f 99/76/81 106/83/88 107/80/85
f 97/77/82 104/85/90 105/82/87
f 108/81/86 115/95/96 116/89/92
f 106/83/88 113/96/97 114/90/93
f 104/85/90 111/97/98 112/91/94
f 108/81/86 107/80/85 114/90/93
f 105/82/87 112/91/94 113/96/97
f 103/84/89 110/93/95 111/97/98
f 113/96/97 122/105/104 123/98/99
f 111/97/98 120/106/105 121/99/100
f 114/90/93 123/98/99 124/104/103
f 113/96/97 112/91/94 121/99/100
f 110/93/95 119/101/101 120/106/105
f 115/95/96 124/104/103 125/103/102
f 124/104/103 123/98/99 130/109/107
f 122/105/104 121/99/100 128/111/109
f 119/101/101 126/115/112 127/113/111
f 124/104/103 131/110/108 132/108/106
f 122/105/104 129/112/110 130/109/107
f 120/106/105 127/113/111 128/111/109
f 129/112/110 128/111/109 135/116/113
f 126/115/112 133/122/118 134/118/115
f 131/110/108 138/124/119 139/119/116
f 129/112/110 136/117/114 137/120/117
f 127/113/111 134/118/115 135/116/113
f 131/110/108 130/109/107 137/120/117
f 138/124/119 145/131/124 146/125/120
f 136/117/114 143/132/125 144/126/121
f 134/118/115 141/133/126 142/127/122
f 137/120/117 144/126/121 145/131/124
f 136/117/114 135/116/113 142/127/122
f 133/122/118 140/129/123 141/133/126
f 141/134/126 148/148/133 149/135/127
f 145/143/124 144/149/121 151/144/130
f 143/146/125 142/136/122 149/135/127
f 140/137/123 147/139/128 148/148/133
f 145/143/124 152/145/131 153/142/129
f 143/146/125 150/147/132 151/144/130
f 152/145/131 151/144/130 158/152/135
f 150/147/132 149/135/127 156/154/137
f 147/139/128 154/158/140 155/156/139
f 152/145/131 159/153/136 160/151/134
f 150/147/132 157/155/138 158/152/135
f 148/148/133 155/156/139 156/154/137
f 154/158/140 161/164/145 162/159/141
f 159/153/136 166/166/146 167/160/142
f 157/155/138 164/167/147 165/161/143
f 155/156/139 162/159/141 163/162/144
f 159/153/136 158/152/135 165/161/143
f 157/155/138 156/154/137 163/162/144
f 166/166/146 170/19/34 60/21/36
f 164/167/147 58/22/37 59/24/39
f 162/159/141 169/25/40 57/27/42
f 166/166/146 165/161/143 59/24/39
f 164/167/147 163/162/144 57/27/42
f 161/164/145 168/28/43 169/25/40
