# Blender 4.0.2
# www.blender.org
mtllib pawn.mtl
o Cube
v -0.437485 -0.675586 -0.437485
v 1.000000 -1.000000 -1.000000
v 0.437485 -0.675586 -0.437485
v 1.000000 -1.000000 1.000000
v -0.437485 -0.675586 0.437485
v -1.000000 -1.000000 -1.000000
v 0.437485 -0.675586 0.437485
v -1.000000 -1.000000 1.000000
v 0.871657 -0.675586 -0.871657
v 1.000000 -0.803929 -1.000000
v 0.871657 -0.675586 0.871657
v 1.000000 -0.803929 1.000000
v -0.871657 -0.675586 -0.871657
v -1.000000 -0.803929 -1.000000
v -0.871657 -0.675586 0.871657
v -1.000000 -0.803929 1.000000
v 0.437485 -0.283900 0.437485
v -0.437485 -0.283900 0.437485
v -0.437485 -0.283900 -0.437485
v 0.437485 -0.283900 -0.437485
v 0.586503 -0.283900 0.586503
v -0.586503 -0.283900 0.586503
v -0.586503 -0.283900 -0.586503
v 0.586503 -0.283900 -0.586503
v 0.586503 -0.159164 0.586503
v -0.586503 -0.159164 0.586503
v -0.586503 -0.159164 -0.586503
v 0.586503 -0.159164 -0.586503
v 0.419818 -0.159164 0.419818
v -0.419818 -0.159164 0.419818
v -0.419818 -0.159164 -0.419818
v 0.419818 -0.159164 -0.419818
v 0.419818 0.028232 0.419818
v -0.419818 0.028232 0.419818
v -0.419818 0.028232 -0.419818
v 0.419818 0.028232 -0.419818
v 0.579056 0.028232 0.579056
v -0.579056 0.028232 0.579056
v -0.579056 0.028232 -0.579056
v 0.579056 0.028232 -0.579056
v 0.579056 0.140620 0.579056
v -0.579056 0.140620 0.579056
v -0.579056 0.140620 -0.579056
v 0.579056 0.140620 -0.579056
v 0.436079 0.140620 0.436079
v -0.436079 0.140620 0.436079
v -0.436079 0.140620 -0.436079
v 0.436079 0.140620 -0.436079
v 0.436079 0.417059 0.436079
v -0.436079 0.417059 0.436079
v -0.436079 0.417059 -0.436079
v 0.436079 0.417059 -0.436079
v 0.323038 0.575644 0.323038
v -0.323038 0.575644 0.323038
v -0.323038 0.575644 -0.323038
v 0.323038 0.575644 -0.323038
v 0.000000 1.255603 -0.485914
v 0.000000 1.054330 -0.525950
v 0.000000 0.853058 -0.485914
v 0.000000 0.568416 -0.201272
v 0.077024 1.540245 -0.185951
v 0.142321 1.426233 -0.343593
v 0.185951 1.255603 -0.448926
v 0.201272 1.054330 -0.485914
v 0.185951 0.853058 -0.448926
v 0.142321 0.682427 -0.343593
v 0.077024 0.568416 -0.185951
v 0.142321 1.540245 -0.142321
v 0.262975 1.426233 -0.262975
v 0.343593 1.255603 -0.343593
v 0.371903 1.054330 -0.371903
v 0.343593 0.853058 -0.343593
v 0.262975 0.682427 -0.262975
v 0.142321 0.568416 -0.142321
v 0.185951 1.540245 -0.077024
v 0.343593 1.426233 -0.142321
v 0.448926 1.255603 -0.185951
v 0.485914 1.054330 -0.201272
v 0.448926 0.853058 -0.185951
v 0.343593 0.682427 -0.142321
v 0.185951 0.568416 -0.077024
v 0.201272 1.540245 -0.000000
v 0.371903 1.426233 0.000000
v 0.485914 1.255603 0.000000
v 0.525950 1.054330 0.000000
v 0.485914 0.853058 0.000000
v 0.371903 0.682427 0.000000
v 0.201272 0.568416 -0.000000
v 0.185951 1.540245 0.077024
v 0.343593 1.426233 0.142321
v 0.448926 1.255603 0.185951
v 0.485914 1.054330 0.201272
v 0.448926 0.853058 0.185951
v 0.343593 0.682427 0.142321
v 0.185951 0.568416 0.077024
v 0.142321 1.540245 0.142321
v 0.262975 1.426233 0.262975
v 0.343593 1.255603 0.343593
v 0.371903 1.054330 0.371903
v 0.343593 0.853058 0.343593
v 0.262975 0.682427 0.262975
v 0.142321 0.568416 0.142321
v 0.077024 1.540245 0.185951
v 0.142321 1.426233 0.343593
v 0.185951 1.255603 0.448926
v 0.201272 1.054330 0.485914
v 0.185951 0.853058 0.448926
v 0.142321 0.682427 0.343593
v 0.077024 0.568416 0.185951
v -0.000000 1.540245 0.201272
v -0.000000 1.426233 0.371903
v -0.000000 1.255603 0.485914
v -0.000000 1.054330 0.525950
v -0.000000 0.853058 0.485914
v -0.000000 0.682427 0.371903
v -0.000000 0.568416 0.201272
v 0.000000 0.528380 -0.000000
v 0.000000 1.580280 -0.000000
v -0.077024 1.540245 0.185951
v -0.142321 1.426233 0.343593
v -0.185951 1.255603 0.448926
v -0.201273 1.054330 0.485914
v -0.185951 0.853058 0.448926
v -0.142321 0.682427 0.343593
v -0.077024 0.568416 0.185951
v -0.142321 1.540245 0.142321
v -0.262975 1.426233 0.262975
v -0.343593 1.255603 0.343593
v -0.371903 1.054330 0.371903
v -0.343593 0.853058 0.343593
v -0.262975 0.682427 0.262975
v -0.142321 0.568416 0.142321
v -0.185951 1.540245 0.077023
v -0.343593 1.426233 0.142321
v -0.448926 1.255603 0.185951
v -0.485914 1.054330 0.201272
v -0.448926 0.853058 0.185951
v -0.343593 0.682427 0.142321
v -0.185951 0.568416 0.077023
v -0.201272 1.540245 -0.000000
v -0.371903 1.426233 -0.000000
v -0.485914 1.255603 -0.000000
v -0.525950 1.054330 -0.000000
v -0.485914 0.853058 -0.000000
v -0.371903 0.682427 -0.000000
v -0.201272 0.568416 -0.000000
v -0.185951 1.540245 -0.077024
v -0.343593 1.426233 -0.142321
v -0.448926 1.255603 -0.185952
v -0.485914 1.054330 -0.201273
v -0.448926 0.853058 -0.185952
v -0.343593 0.682427 -0.142321
v -0.185951 0.568416 -0.077024
v -0.142321 1.540245 -0.142321
v -0.262975 1.426233 -0.262975
v -0.343593 1.255603 -0.343594
v -0.371903 1.054330 -0.371903
v -0.343593 0.853058 -0.343594
v -0.262975 0.682427 -0.262975
v -0.142321 0.568416 -0.142321
v -0.077023 1.540245 -0.185952
v -0.142321 1.426233 -0.343593
v -0.185951 1.255603 -0.448926
v -0.201272 1.054330 -0.485915
v -0.185951 0.853058 -0.448926
v -0.142321 0.682427 -0.343593
v -0.077023 0.568416 -0.185952
v 0.000000 1.540245 -0.201272
v 0.000000 1.426233 -0.371903
v 0.000000 0.682427 -0.371903
vn -0.0000 -0.0000 1.0000
vn -1.0000 -0.0000 -0.0000
vn 1.0000 -0.0000 -0.0000
vn -0.0000 -1.0000 -0.0000
vn -0.0000 1.0000 -0.0000
vn -0.0000 0.7071 0.7071
vn 0.7071 0.7071 -0.0000
vn -0.7071 0.7071 -0.0000
vn -0.0000 0.7071 -0.7071
vn -0.0000 -0.0000 -1.0000
vn -0.0000 0.5804 -0.8143
vn -0.0000 0.5804 0.8143
vn 0.8143 0.5804 -0.0000
vn -0.8143 0.5804 -0.0000
vn 0.1098 -0.8264 -0.5522
vn 0.1915 -0.1915 -0.9626
vn 0.1632 0.5481 -0.8203
vn 0.0388 0.9800 -0.1949
vn 0.0388 -0.9800 -0.1949
vn 0.1632 -0.5481 -0.8203
vn 0.1915 0.1915 -0.9626
vn 0.1098 0.8264 -0.5522
vn 0.4647 0.5481 -0.6954
vn 0.1104 0.9800 -0.1653
vn 0.1104 -0.9800 -0.1653
vn 0.4647 -0.5481 -0.6954
vn 0.5453 0.1915 -0.8161
vn 0.3128 0.8264 -0.4681
vn 0.3128 -0.8264 -0.4681
vn 0.5453 -0.1915 -0.8161
vn 0.1653 -0.9800 -0.1104
vn 0.6954 -0.5481 -0.4647
vn 0.8161 0.1915 -0.5453
vn 0.4681 0.8264 -0.3128
vn 0.4681 -0.8264 -0.3128
vn 0.8161 -0.1915 -0.5453
vn 0.6954 0.5481 -0.4647
vn 0.1653 0.9800 -0.1104
vn 0.5522 0.8264 -0.1098
vn 0.5522 -0.8264 -0.1098
vn 0.9626 -0.1915 -0.1915
vn 0.8203 0.5481 -0.1632
vn 0.1949 0.9800 -0.0388
vn 0.1949 -0.9800 -0.0388
vn 0.8203 -0.5481 -0.1632
vn 0.9626 0.1915 -0.1915
vn 0.5522 -0.8264 0.1098
vn 0.9626 -0.1915 0.1915
vn 0.8203 0.5481 0.1632
vn 0.1949 0.9800 0.0388
vn 0.1949 -0.9800 0.0388
vn 0.8203 -0.5481 0.1632
vn 0.9626 0.1915 0.1915
vn 0.5522 0.8264 0.1098
vn 0.1653 0.9800 0.1104
vn 0.1653 -0.9800 0.1104
vn 0.6954 -0.5481 0.4647
vn 0.8161 0.1915 0.5453
vn 0.4681 0.8264 0.3128
vn 0.4681 -0.8264 0.3128
vn 0.8161 -0.1915 0.5453
vn 0.6954 0.5481 0.4647
vn 0.4647 -0.5481 0.6954
vn 0.5453 0.1915 0.8161
vn 0.3128 0.8264 0.4681
vn 0.3128 -0.8264 0.4681
vn 0.5453 -0.1915 0.8161
vn 0.4647 0.5481 0.6954
vn 0.1104 0.9800 0.1653
vn 0.1104 -0.9800 0.1653
vn 0.1098 -0.8264 0.5522
vn 0.1915 -0.1915 0.9626
vn 0.1632 0.5481 0.8203
vn 0.0388 0.9800 0.1949
vn 0.0388 -0.9800 0.1949
vn 0.1632 -0.5481 0.8203
vn 0.1915 0.1915 0.9626
vn 0.1098 0.8264 0.5522
vn -0.1915 -0.1915 0.9626
vn -0.1632 0.5481 0.8203
vn -0.0388 0.9800 0.1949
vn -0.0388 -0.9800 0.1949
vn -0.1632 -0.5481 0.8203
vn -0.1915 0.1915 0.9626
vn -0.1098 0.8264 0.5522
vn -0.1098 -0.8264 0.5522
vn -0.1104 -0.9800 0.1653
vn -0.4647 -0.5481 0.6954
vn -0.5453 0.1915 0.8161
vn -0.3128 0.8264 0.4681
vn -0.3128 -0.8264 0.4681
vn -0.5453 -0.1915 0.8161
vn -0.4647 0.5481 0.6954
vn -0.1104 0.9800 0.1653
vn -0.8161 0.1915 0.5453
vn -0.4681 0.8264 0.3128
vn -0.4681 -0.8264 0.3128
vn -0.8161 -0.1915 0.5453
vn -0.6954 0.5481 0.4647
vn -0.1653 0.9800 0.1104
vn -0.1653 -0.9800 0.1104
vn -0.6954 -0.5481 0.4647
vn -0.5522 -0.8264 0.1098
vn -0.9626 -0.1915 0.1915
vn -0.8203 0.5481 0.1632
vn -0.1949 0.9800 0.0388
vn -0.1949 -0.9800 0.0388
vn -0.8203 -0.5481 0.1632
vn -0.9626 0.1915 0.1915
vn -0.5522 0.8264 0.1098
vn -0.8203 0.5481 -0.1632
vn -0.1949 0.9800 -0.0388
vn -0.1949 -0.9800 -0.0388
vn -0.8203 -0.5481 -0.1632
vn -0.9626 0.1915 -0.1915
vn -0.5522 0.8264 -0.1098
vn -0.5522 -0.8264 -0.1098
vn -0.9626 -0.1915 -0.1915
vn -0.1653 -0.9800 -0.1104
vn -0.6954 -0.5481 -0.4647
vn -0.8161 0.1915 -0.5453
vn -0.4681 0.8264 -0.3128
vn -0.4681 -0.8264 -0.3128
vn -0.8161 -0.1915 -0.5453
vn -0.6954 0.5481 -0.4647
vn -0.1653 0.9800 -0.1104
vn -0.3128 0.8264 -0.4681
vn -0.3128 -0.8264 -0.4681
vn -0.5453 -0.1915 -0.8161
vn -0.4647 0.5481 -0.6954
vn -0.1104 0.9800 -0.1653
vn -0.1104 -0.9800 -0.1653
vn -0.4647 -0.5481 -0.6954
vn -0.5453 0.1915 -0.8161
vn -0.1098 -0.8264 -0.5522
vn -0.1915 -0.1915 -0.9626
vn -0.1632 0.5481 -0.8203
vn -0.0388 0.9800 -0.1949
vn -0.0388 -0.9800 -0.1949
vn -0.1632 -0.5481 -0.8203
vn -0.1915 0.1915 -0.9626
vn -0.1098 0.8264 -0.5522
vt 0.526097 0.750000
vt 0.375000 1.000000
vt 0.375000 0.750000
vt 0.526097 0.000000
vt 0.375000 0.250000
vt 0.375000 0.000000
vt 0.641043 0.516043
vt 0.641043 0.733957
vt 0.375000 0.500000
vt 0.125000 0.750000
vt 0.125000 0.500000
vt 0.858957 0.516043
vt 0.526097 0.500000
vt 0.858957 0.733957
vt 0.625000 0.750000
vt 0.875000 0.750000
vt 0.875000 0.500000
vt 0.526097 0.250000
vt 0.750000 0.250000
vt 0.687500 0.125000
vt 0.750000 0.125000
vt 0.750000 0.500000
vt 0.687500 0.375000
vt 0.750000 0.375000
vt 0.750000 0.750000
vt 0.687500 0.625000
vt 0.750000 0.625000
vt 0.750000 0.875000
vt 0.718750 1.000000
vt 0.687500 0.875000
vt 0.718750 0.000000
vt 0.687500 0.250000
vt 0.687500 0.500000
vt 0.687500 0.750000
vt 0.625000 0.750000
vt 0.625000 0.625000
vt 0.656250 1.000000
vt 0.625000 0.875000
vt 0.656250 0.000000
vt 0.625000 0.125000
vt 0.625000 0.250000
vt 0.625000 0.500000
vt 0.625000 0.375000
vt 0.593750 0.000000
vt 0.562500 0.125000
vt 0.562500 0.250000
vt 0.562500 0.500000
vt 0.562500 0.750000
vt 0.562500 0.375000
vt 0.562500 0.625000
vt 0.593750 1.000000
vt 0.562500 0.875000
vt 0.500000 0.750000
vt 0.500000 0.125000
vt 0.500000 0.375000
vt 0.500000 0.625000
vt 0.531250 1.000000
vt 0.500000 0.875000
vt 0.531250 0.000000
vt 0.500000 0.250000
vt 0.500000 0.500000
vt 0.437500 0.125000
vt 0.437500 0.500000
vt 0.437500 0.375000
vt 0.437500 0.625000
vt 0.468750 1.000000
vt 0.437500 0.875000
vt 0.468750 0.000000
vt 0.437500 0.250000
vt 0.437500 0.750000
vt 0.406250 1.000000
vt 0.375000 0.875000
vt 0.406250 0.000000
vt 0.375000 0.125000
vt 0.375000 0.250000
vt 0.375000 0.500000
vt 0.375000 0.750000
vt 0.375000 0.375000
vt 0.375000 0.625000
vt 0.312500 0.375000
vt 0.312500 0.250000
vt 0.312500 0.625000
vt 0.312500 0.500000
vt 0.312500 0.875000
vt 0.312500 0.750000
vt 0.312500 0.125000
vt 0.343750 1.000000
vt 0.343750 0.000000
vt 0.250000 0.125000
vt 0.250000 0.375000
vt 0.250000 0.625000
vt 0.281250 1.000000
vt 0.250000 0.875000
vt 0.281250 0.000000
vt 0.250000 0.250000
vt 0.250000 0.500000
vt 0.250000 0.750000
vt 0.187500 0.375000
vt 0.187500 0.625000
vt 0.218750 1.000000
vt 0.187500 0.875000
vt 0.218750 0.000000
vt 0.187500 0.125000
vt 0.187500 0.250000
vt 0.187500 0.500000
vt 0.187500 0.750000
vt 0.156250 0.000000
vt 0.125000 0.125000
vt 0.125000 0.375000
vt 0.125000 0.250000
vt 0.125000 0.625000
vt 0.125000 0.500000
vt 0.125000 0.750000
vt 0.156250 1.000000
vt 0.125000 0.875000
vt 0.062500 0.625000
vt 0.062500 0.500000
vt 0.062500 0.750000
vt 0.062500 0.125000
vt 0.062500 0.375000
vt 0.093750 1.000000
vt 0.062500 0.875000
vt 0.093750 0.000000
vt 0.062500 0.250000
vt 0.000000 0.125000
vt 0.000000 0.375000
vt 0.000000 0.625000
vt 0.031250 1.000000
vt 0.000000 0.875000
vt 0.031250 0.000000
vt 0.000000 0.250000
vt 0.000000 0.500000
vt 0.000000 0.750000
vt 1.000000 0.750000
vt 0.937500 0.625000
vt 1.000000 0.625000
vt 1.000000 0.875000
vt 0.968750 1.000000
vt 0.937500 0.875000
vt 0.968750 0.000000
vt 1.000000 0.125000
vt 0.937500 0.125000
vt 1.000000 0.250000
vt 0.937500 0.375000
vt 0.937500 0.250000
vt 1.000000 0.500000
vt 0.937500 0.500000
vt 0.937500 0.750000
vt 1.000000 0.375000
vt 0.906250 0.000000
vt 0.875000 0.125000
vt 0.875000 0.375000
vt 0.875000 0.250000
vt 0.875000 0.625000
vt 0.875000 0.500000
vt 0.875000 0.750000
vt 0.906250 1.000000
vt 0.875000 0.875000
vt 0.812500 0.750000
vt 0.812500 0.125000
vt 0.812500 0.375000
vt 0.812500 0.625000
vt 0.843750 1.000000
vt 0.812500 0.875000
vt 0.843750 0.000000
vt 0.812500 0.250000
vt 0.812500 0.500000
vt 0.781250 1.000000
vt 0.781250 0.000000
vt 0.526097 1.000000
s 0
usemtl Material
f 12/1/1 8/2/1 4/3/1
f 16/4/2 6/5/2 8/6/2
f 3/7/3 17/8/3 7/8/3
f 2/9/4 8/10/4 6/11/4
f 13/12/5 3/7/5 9/7/5
f 10/13/3 4/3/3 2/9/3
f 15/14/6 12/15/6 11/8/6
f 11/8/7 10/13/7 9/7/7
f 13/12/8 16/16/8 15/14/8
f 9/7/9 14/17/9 13/12/9
f 14/18/10 2/9/10 6/5/10
f 15/14/5 1/12/5 13/12/5
f 9/7/5 7/8/5 11/8/5
f 11/8/5 5/14/5 15/14/5
f 18/14/4 23/12/4 19/12/4
f 5/14/2 19/12/2 1/12/2
f 7/8/1 18/14/1 5/14/1
f 1/12/10 20/7/10 3/7/10
f 23/12/10 28/7/10 24/7/10
f 19/12/4 24/7/4 20/7/4
f 17/8/4 22/14/4 18/14/4
f 20/7/4 21/8/4 17/8/4
f 28/7/5 29/8/5 25/8/5
f 21/8/1 26/14/1 22/14/1
f 24/7/3 25/8/3 21/8/3
f 22/14/2 27/12/2 23/12/2
f 31/12/10 36/7/10 32/7/10
f 26/14/5 31/12/5 27/12/5
f 27/12/5 32/7/5 28/7/5
f 25/8/5 30/14/5 26/14/5
f 35/12/4 40/7/4 36/7/4
f 29/8/1 34/14/1 30/14/1
f 32/7/3 33/8/3 29/8/3
f 30/14/2 35/12/2 31/12/2
f 39/12/10 44/7/10 40/7/10
f 33/8/4 38/14/4 34/14/4
f 36/7/4 37/8/4 33/8/4
f 34/14/4 39/12/4 35/12/4
f 43/12/5 48/7/5 44/7/5
f 37/8/1 42/14/1 38/14/1
f 40/7/3 41/8/3 37/8/3
f 38/14/2 43/12/2 39/12/2
f 48/7/3 49/8/3 45/8/3
f 41/8/5 46/14/5 42/14/5
f 44/7/5 45/8/5 41/8/5
f 42/14/5 47/12/5 43/12/5
f 51/12/11 56/7/11 52/7/11
f 46/14/2 51/12/2 47/12/2
f 47/12/10 52/7/10 48/7/10
f 45/8/1 50/14/1 46/14/1
f 55/12/5 53/8/5 56/7/5
f 49/8/12 54/14/12 50/14/12
f 52/7/13 53/8/13 49/8/13
f 50/14/14 55/12/14 51/12/14
f 170/19/15 67/20/15 60/21/15
f 58/22/16 65/23/16 59/24/16
f 169/25/17 63/26/17 57/27/17
f 168/28/18 118/29/18 61/30/18
f 117/31/19 60/21/19 67/20/19
f 170/19/20 65/23/20 66/32/20
f 57/27/21 64/33/21 58/22/21
f 168/28/22 62/34/22 169/25/22
f 63/26/23 69/35/23 70/36/23
f 61/30/24 118/37/24 68/38/24
f 117/39/25 67/20/25 74/40/25
f 65/23/26 73/41/26 66/32/26
f 63/26/27 71/42/27 64/33/27
f 62/34/28 68/38/28 69/35/28
f 66/32/29 74/40/29 67/20/29
f 64/33/30 72/43/30 65/23/30
f 117/44/31 74/40/31 81/45/31
f 72/43/32 80/46/32 73/41/32
f 70/36/33 78/47/33 71/42/33
f 68/38/34 76/48/34 69/35/34
f 73/41/35 81/45/35 74/40/35
f 71/42/36 79/49/36 72/43/36
f 70/36/37 76/48/37 77/50/37
f 68/38/38 118/51/38 75/52/38
f 75/52/39 83/53/39 76/48/39
f 80/46/40 88/54/40 81/45/40
f 78/47/41 86/55/41 79/49/41
f 76/48/42 84/56/42 77/50/42
f 75/52/43 118/57/43 82/58/43
f 117/59/44 81/45/44 88/54/44
f 79/49/45 87/60/45 80/46/45
f 77/50/46 85/61/46 78/47/46
f 87/60/47 95/62/47 88/54/47
f 86/55/48 92/63/48 93/64/48
f 83/53/49 91/65/49 84/56/49
f 82/58/50 118/66/50 89/67/50
f 117/68/51 88/54/51 95/62/51
f 86/55/52 94/69/52 87/60/52
f 84/56/53 92/63/53 85/61/53
f 82/58/54 90/70/54 83/53/54
f 89/67/55 118/71/55 96/72/55
f 117/73/56 95/62/56 102/74/56
f 93/64/57 101/75/57 94/69/57
f 91/65/58 99/76/58 92/63/58
f 89/67/59 97/77/59 90/70/59
f 94/69/60 102/74/60 95/62/60
f 92/63/61 100/78/61 93/64/61
f 90/70/62 98/79/62 91/65/62
f 101/75/63 107/80/63 108/81/63
f 99/76/64 105/82/64 106/83/64
f 97/77/65 103/84/65 104/85/65
f 101/75/66 109/86/66 102/74/66
f 99/76/67 107/80/67 100/78/67
f 97/77/68 105/82/68 98/79/68
f 96/72/69 118/87/69 103/84/69
f 117/88/70 102/74/70 109/86/70
f 108/81/71 116/89/71 109/86/71
f 106/83/72 114/90/72 107/80/72
f 104/85/73 112/91/73 105/82/73
f 103/84/74 118/92/74 110/93/74
f 117/94/75 109/86/75 116/89/75
f 108/81/76 114/90/76 115/95/76
f 105/82/77 113/96/77 106/83/77
f 103/84/78 111/97/78 104/85/78
f 113/96/79 123/98/79 114/90/79
f 111/97/80 121/99/80 112/91/80
f 110/93/81 118/100/81 119/101/81
f 117/102/82 116/89/82 125/103/82
f 114/90/83 124/104/83 115/95/83
f 113/96/84 121/99/84 122/105/84
f 110/93/85 120/106/85 111/97/85
f 115/95/86 125/103/86 116/89/86
f 117/107/87 125/103/87 132/108/87
f 124/104/88 130/109/88 131/110/88
f 122/105/89 128/111/89 129/112/89
f 119/101/90 127/113/90 120/106/90
f 124/104/91 132/108/91 125/103/91
f 122/105/92 130/109/92 123/98/92
f 120/106/93 128/111/93 121/99/93
f 119/101/94 118/114/94 126/115/94
f 129/112/95 135/116/95 136/117/95
f 126/115/96 134/118/96 127/113/96
f 131/110/97 139/119/97 132/108/97
f 129/112/98 137/120/98 130/109/98
f 127/113/99 135/116/99 128/111/99
f 126/115/100 118/121/100 133/122/100
f 117/123/101 132/108/101 139/119/101
f 131/110/102 137/120/102 138/124/102
f 138/124/103 146/125/103 139/119/103
f 136/117/104 144/126/104 137/120/104
f 134/118/105 142/127/105 135/116/105
f 133/122/106 118/128/106 140/129/106
f 117/130/107 139/119/107 146/125/107
f 137/120/108 145/131/108 138/124/108
f 136/117/109 142/127/109 143/132/109
f 133/122/110 141/133/110 134/118/110
f 141/134/111 149/135/111 142/136/111
f 140/137/112 118/138/112 147/139/112
f 117/140/113 146/141/113 153/142/113
f 145/143/114 151/144/114 152/145/114
f 143/146/115 149/135/115 150/147/115
f 140/137/116 148/148/116 141/134/116
f 145/143/117 153/142/117 146/141/117
f 143/146/118 151/144/118 144/149/118
f 117/150/119 153/142/119 160/151/119
f 152/145/120 158/152/120 159/153/120
f 150/147/121 156/154/121 157/155/121
f 147/139/122 155/156/122 148/148/122
f 152/145/123 160/151/123 153/142/123
f 150/147/124 158/152/124 151/144/124
f 148/148/125 156/154/125 149/135/125
f 147/139/126 118/157/126 154/158/126
f 154/158/127 162/159/127 155/156/127
f 159/153/128 167/160/128 160/151/128
f 157/155/129 165/161/129 158/152/129
f 155/156/130 163/162/130 156/154/130
f 154/158/131 118/163/131 161/164/131
f 117/165/132 160/151/132 167/160/132
f 159/153/133 165/161/133 166/166/133
f 157/155/134 163/162/134 164/167/134
f 166/166/135 60/21/135 167/160/135
f 164/167/136 59/24/136 165/161/136
f 162/159/137 57/27/137 163/162/137
f 161/164/138 118/168/138 168/28/138
f 117/169/139 167/160/139 60/21/139
f 166/166/140 59/24/140 170/19/140
f 164/167/141 57/27/141 58/22/141
f 161/164/142 169/25/142 162/159/142
f 12/1/1 16/170/1 8/2/1
f 16/4/2 14/18/2 6/5/2
f 3/7/3 20/7/3 17/8/3
f 2/9/4 4/3/4 8/10/4
f 13/12/5 1/12/5 3/7/5
f 10/13/3 12/1/3 4/3/3
f 15/14/6 16/16/6 12/15/6
f 11/8/7 12/1/7 10/13/7
f 13/12/8 14/17/8 16/16/8
f 9/7/9 10/42/9 14/17/9
f 14/18/10 10/13/10 2/9/10
f 15/14/5 5/14/5 1/12/5
f 9/7/5 3/7/5 7/8/5
f 11/8/5 7/8/5 5/14/5
f 18/14/4 22/14/4 23/12/4
f 5/14/2 18/14/2 19/12/2
f 7/8/1 17/8/1 18/14/1
f 1/12/10 19/12/10 20/7/10
f 23/12/10 27/12/10 28/7/10
f 19/12/4 23/12/4 24/7/4
f 17/8/4 21/8/4 22/14/4
f 20/7/4 24/7/4 21/8/4
f 28/7/5 32/7/5 29/8/5
f 21/8/1 25/8/1 26/14/1
f 24/7/3 28/7/3 25/8/3
f 22/14/2 26/14/2 27/12/2
f 31/12/10 35/12/10 36/7/10
f 26/14/5 30/14/5 31/12/5
f 27/12/5 31/12/5 32/7/5
f 25/8/5 29/8/5 30/14/5
f 35/12/4 39/12/4 40/7/4
f 29/8/1 33/8/1 34/14/1
f 32/7/3 36/7/3 33/8/3
f 30/14/2 34/14/2 35/12/2
f 39/12/10 43/12/10 44/7/10
f 33/8/4 37/8/4 38/14/4
f 36/7/4 40/7/4 37/8/4
f 34/14/4 38/14/4 39/12/4
f 43/12/5 47/12/5 48/7/5
f 37/8/1 41/8/1 42/14/1
f 40/7/3 44/7/3 41/8/3
f 38/14/2 42/14/2 43/12/2
f 48/7/3 52/7/3 49/8/3
f 41/8/5 45/8/5 46/14/5
f 44/7/5 48/7/5 45/8/5
f 42/14/5 46/14/5 47/12/5
f 51/12/11 55/12/11 56/7/11
f 46/14/2 50/14/2 51/12/2
f 47/12/10 51/12/10 52/7/10
f 45/8/1 49/8/1 50/14/1
f 55/12/5 54/14/5 53/8/5
f 49/8/12 53/8/12 54/14/12
f 52/7/13 56/7/13 53/8/13
f 50/14/14 54/14/14 55/12/14
f 170/19/15 66/32/15 67/20/15
f 58/22/16 64/33/16 65/23/16
f 169/25/17 62/34/17 63/26/17
f 170/19/20 59/24/20 65/23/20
f 57/27/21 63/26/21 64/33/21
f 168/28/22 61/30/22 62/34/22
f 63/26/23 62/34/23 69/35/23
f 65/23/26 72/43/26 73/41/26
f 63/26/27 70/36/27 71/42/27
f 62/34/28 61/30/28 68/38/28
f 66/32/29 73/41/29 74/40/29
f 64/33/30 71/42/30 72/43/30
f 72/43/32 79/49/32 80/46/32
f 70/36/33 77/50/33 78/47/33
f 68/38/34 75/52/34 76/48/34
f 73/41/35 80/46/35 81/45/35
f 71/42/36 78/47/36 79/49/36
f 70/36/37 69/35/37 76/48/37
f 75/52/39 82/58/39 83/53/39
f 80/46/40 87/60/40 88/54/40
f 78/47/41 85/61/41 86/55/41
f 76/48/42 83/53/42 84/56/42
f 79/49/45 86/55/45 87/60/45
f 77/50/46 84/56/46 85/61/46
f 87/60/47 94/69/47 95/62/47
f 86/55/48 85/61/48 92/63/48
f 83/53/49 90/70/49 91/65/49
f 86/55/52 93/64/52 94/69/52
f 84/56/53 91/65/53 92/63/53
f 82/58/54 89/67/54 90/70/54
f 93/64/57 100/78/57 101/75/57
f 91/65/58 98/79/58 99/76/58
f 89/67/59 96/72/59 97/77/59
f 94/69/60 101/75/60 102/74/60
f 92/63/61 99/76/61 100/78/61
f 90/70/62 97/77/62 98/79/62
f 101/75/63 100/78/63 107/80/63
f 99/76/64 98/79/64 105/82/64
f 97/77/65 96/72/65 103/84/65
f 101/75/66 108/81/66 109/86/66
f 99/76/67 106/83/67 107/80/67
f 97/77/68 104/85/68 105/82/68
f 108/81/71 115/95/71 116/89/71
f 106/83/72 113/96/72 114/90/72
f 104/85/73 111/97/73 112/91/73
f 108/81/76 107/80/76 114/90/76
f 105/82/77 112/91/77 113/96/77
f 103/84/78 110/93/78 111/97/78
f 113/96/79 122/105/79 123/98/79
f 111/97/80 120/106/80 121/99/80
f 114/90/83 123/98/83 124/104/83
f 113/96/84 112/91/84 121/99/84
f 110/93/85 119/101/85 120/106/85
f 115/95/86 124/104/86 125/103/86
f 124/104/88 123/98/88 130/109/88
f 122/105/89 121/99/89 128/111/89
f 119/101/90 126/115/90 127/113/90
f 124/104/91 131/110/91 132/108/91
f 122/105/92 129/112/92 130/109/92
f 120/106/93 127/113/93 128/111/93
f 129/112/95 128/111/95 135/116/95
f 126/115/96 133/122/96 134/118/96
f 131/110/97 138/124/97 139/119/97
f 129/112/98 136/117/98 137/120/98
f 127/113/99 134/118/99 135/116/99
f 131/110/102 130/109/102 137/120/102
f 138/124/103 145/131/103 146/125/103
f 136/117/104 143/132/104 144/126/104
f 134/118/105 141/133/105 142/127/105
f 137/120/108 144/126/108 145/131/108
f 136/117/109 135/116/109 142/127/109
f 133/122/110 140/129/110 141/133/110
f 141/134/111 148/148/111 149/135/111
f 145/143/114 144/149/114 151/144/114
f 143/146/115 142/136/115 149/135/115
f 140/137/116 147/139/116 148/148/116
f 145/143/117 152/145/117 153/142/117
f 143/146/118 150/147/118 151/144/118
f 152/145/120 151/144/120 158/152/120
f 150/147/121 149/135/121 156/154/121
f 147/139/122 154/158/122 155/156/122
f 152/145/123 159/153/123 160/151/123
f 150/147/124 157/155/124 158/152/124
f 148/148/125 155/156/125 156/154/125
f 154/158/127 161/164/127 162/159/127
f 159/153/128 166/166/128 167/160/128
f 157/155/129 164/167/129 165/161/129
f 155/156/130 162/159/130 163/162/130
f 159/153/133 158/152/133 165/161/133
f 157/155/134 156/154/134 163/162/134
f 166/166/135 170/19/135 60/21/135
f 164/167/136 58/22/136 59/24/136
f 162/159/137 169/25/137 57/27/137
f 166/166/140 165/161/140 59/24/140
f 164/167/141 163/162/141 57/27/141
f 161/164/142 168/28/142 169/25/142
