# Blender 4.0.2
# www.blender.org
mtllib rook_s.mtl
o Cube
v 1.000000 -1.000000 -1.000000
v 1.000000 -1.000000 1.000000
v -1.000000 -1.000000 -1.000000
v -1.000000 -1.000000 1.000000
v 0.871657 -0.675586 -0.871657
v 1.000000 -0.803929 -1.000000
v 0.871657 -0.675586 0.871657
v 1.000000 -0.803929 1.000000
v -0.871657 -0.675586 -0.871657
v -1.000000 -0.803929 -1.000000
v -0.871657 -0.675586 0.871657
v -1.000000 -0.803929 1.000000
v -0.660849 0.625274 -0.660849
v 0.660849 0.625274 -0.660849
v -0.660849 0.625274 0.660849
v 0.660849 0.625274 0.660849
v -0.873125 0.856020 -0.873125
v 0.873125 0.856020 -0.873125
v -0.873125 0.856020 0.873125
v 0.873125 0.856020 0.873125
v -0.873125 1.069631 -0.873125
v 0.873125 1.069631 -0.873125
v -0.873125 1.069631 0.873125
v 0.873125 1.069631 0.873125
v 0.396509 0.625274 0.660849
v 0.132170 0.625274 0.660849
v -0.132170 0.625274 0.660849
v -0.396509 0.625274 0.660849
v -0.396509 0.625274 -0.660849
v -0.132170 0.625274 -0.660849
v 0.132170 0.625274 -0.660849
v 0.396509 0.625274 -0.660849
v 0.523875 0.856020 0.873125
v 0.174625 0.856020 0.873125
v -0.174625 0.856020 0.873125
v -0.523875 0.856020 0.873125
v -0.523875 0.856020 -0.873125
v -0.174625 0.856020 -0.873125
v 0.174625 0.856020 -0.873125
v 0.523875 0.856020 -0.873125
v 0.523875 1.069631 0.873125
v 0.174625 1.069631 0.873125
v -0.174625 1.069631 0.873125
v -0.523875 1.069631 0.873125
v -0.523875 1.069631 -0.873125
v -0.174625 1.069631 -0.873125
v 0.174625 1.069631 -0.873125
v 0.523875 1.069631 -0.873125
v -0.660849 0.625274 0.396509
v -0.660849 0.625274 0.132170
v -0.660849 0.625274 -0.132170
v -0.660849 0.625274 -0.396509
v 0.660849 0.625274 -0.396509
v 0.660849 0.625274 -0.132170
v 0.660849 0.625274 0.132170
v 0.660849 0.625274 0.396509
v -0.873125 0.856020 0.523875
v -0.873125 0.856020 0.174625
v -0.873125 0.856020 -0.174625
v -0.873125 0.856020 -0.523875
v 0.873125 0.856020 -0.523875
v 0.873125 0.856020 -0.174625
v 0.873125 0.856020 0.174625
v 0.873125 0.856020 0.523875
v -0.873125 1.069631 0.523875
v -0.873125 1.069631 0.174625
v -0.873125 1.069631 -0.174625
v -0.873125 1.069631 -0.523875
v 0.873125 1.069631 -0.523875
v 0.873125 1.069631 -0.174625
v 0.873125 1.069631 0.174625
v 0.873125 1.069631 0.523875
v 0.523875 1.069631 -0.523875
v 0.523875 1.069631 -0.174625
v 0.523875 1.069631 0.174625
v 0.523875 1.069631 0.523875
v 0.174625 1.069631 -0.523875
v 0.174625 1.069631 -0.174625
v 0.174625 1.069631 0.174625
v 0.174625 1.069631 0.523875
v -0.174625 1.069631 -0.523875
v -0.174625 1.069631 -0.174625
v -0.174625 1.069631 0.174625
v -0.174625 1.069631 0.523875
v -0.523875 1.069631 -0.523875
v -0.523875 1.069631 -0.174625
v -0.523875 1.069631 0.174625
v -0.523875 1.069631 0.523875
v -0.523875 1.684630 0.873125
v -0.873125 1.684630 0.873125
v -0.873125 1.684630 -0.523875
v -0.873125 1.684630 -0.873125
v 0.523875 1.684630 -0.873125
v 0.873125 1.684630 -0.873125
v 0.873125 1.684630 0.523875
v 0.873125 1.684630 0.873125
v 0.523875 1.684630 0.873125
v 0.174625 1.684630 0.873125
v -0.174625 1.684630 0.873125
v -0.523875 1.684630 -0.873125
v -0.174625 1.684630 -0.873125
v 0.174625 1.684630 -0.873125
v 0.523875 1.684630 0.523875
v 0.174625 1.684630 0.523875
v -0.174625 1.684630 0.523875
v -0.523875 1.684630 0.523875
v -0.873125 1.684630 0.523875
v -0.873125 1.684630 0.174625
v -0.873125 1.684630 -0.174625
v 0.873125 1.684630 -0.523875
v 0.873125 1.684630 -0.174625
v 0.873125 1.684630 0.174625
v 0.523875 1.684630 -0.523875
v 0.523875 1.684630 -0.174625
v 0.523875 1.684630 0.174625
v 0.174625 1.684630 -0.523875
v -0.174625 1.684630 -0.523875
v -0.523875 1.684630 -0.523875
v -0.523875 1.684630 -0.174625
v -0.523875 1.684630 0.174625
v 0.660849 -0.783958 -0.660849
v 0.660849 -0.783958 0.660849
v -0.660849 -0.783958 0.660849
v -0.660849 -0.783958 -0.660849
v 0.396509 -0.783958 -0.660849
v 0.132170 -0.783958 -0.660849
v -0.132170 -0.783958 -0.660849
v -0.396509 -0.783958 -0.660849
v -0.396509 -0.783958 0.660849
v -0.132170 -0.783958 0.660849
v 0.132170 -0.783958 0.660849
v 0.396509 -0.783958 0.660849
v -0.660849 -0.783958 -0.396509
v -0.660849 -0.783958 -0.132170
v -0.660849 -0.783958 0.132170
v -0.660849 -0.783958 0.396509
v 0.660849 -0.783958 0.396509
v 0.660849 -0.783958 0.132170
v 0.660849 -0.783958 -0.132170
v 0.660849 -0.783958 -0.396509
vn 0.6507 0.3914 0.6507
vn -0.5774 -0.5774 0.5774
vn 0.5774 -0.5774 0.5774
vn -0.6507 0.3914 0.6507
vn -0.5774 -0.5774 -0.5774
vn 0.5774 -0.5774 -0.5774
vn 0.6507 0.3914 -0.6507
vn -0.3002 0.9054 0.3002
vn 0.3002 0.9054 0.3002
vn 0.3002 0.9054 -0.3002
vn -0.3002 0.9054 -0.3002
vn -0.6507 0.3914 -0.6507
vn -0.0000 -0.3634 0.9317
vn 0.3015 0.3015 0.9045
vn -0.7071 -0.0000 0.7071
vn 0.5914 -0.5481 0.5914
vn 0.6547 -0.3779 0.6547
vn 0.7071 -0.0000 0.7071
vn -0.3015 0.3015 0.9045
vn 0.7071 -0.0000 -0.7071
vn 0.9317 -0.3634 -0.0000
vn 1.0000 -0.0000 -0.0000
vn 0.5914 -0.5481 -0.5914
vn -0.9317 -0.3634 -0.0000
vn -1.0000 -0.0000 -0.0000
vn -0.0000 -0.0000 1.0000
vn -0.7071 -0.0000 -0.7071
vn -0.0000 -0.3634 -0.9317
vn -0.0000 -0.0000 -1.0000
vn -0.6547 -0.3779 0.6547
vn -0.9045 0.3015 -0.3015
vn -0.5914 -0.5481 0.5914
vn -0.5914 -0.5481 -0.5914
vn -0.3015 0.3015 -0.9045
vn 0.5774 0.5774 -0.5774
vn 0.3015 0.3015 -0.9045
vn -0.6547 -0.3779 -0.6547
vn 0.6547 -0.3779 -0.6547
vn 0.9045 0.3015 0.3015
vn 0.3015 0.9045 -0.3015
vn 0.5774 0.5774 0.5774
vn 0.3015 0.9045 0.3015
vn -0.3015 0.9045 0.3015
vn -0.5774 0.5774 0.5774
vn -0.3015 0.9045 -0.3015
vn -0.0000 1.0000 -0.0000
vn -0.5774 0.5774 -0.5774
vn 0.9045 0.3015 -0.3015
vn -0.9045 0.3015 0.3015
vt 0.526097 0.750000
vt 0.375000 1.000000
vt 0.375000 0.750000
vt 0.526097 0.000000
vt 0.375000 0.250000
vt 0.375000 0.000000
vt 0.375000 0.500000
vt 0.125000 0.750000
vt 0.125000 0.500000
vt 0.526097 0.500000
vt 0.858957 0.733957
vt 0.625000 0.750000
vt 0.641043 0.733957
vt 0.641043 0.516043
vt 0.858957 0.516043
vt 0.875000 0.750000
vt 0.875000 0.500000
vt 0.526097 0.250000
vt 0.815374 0.733957
vt 0.684626 0.733957
vt 0.526097 1.000000
vt 0.625000 0.500000
vt 0.684626 0.733957
vt 0.641043 0.559626
vt 0.641043 0.559626
vt 0.641043 0.559626
vt 0.858957 0.690374
vt 0.858957 0.690374
vt 0.684626 0.733957
vt 0.815374 0.516043
vt 0.858957 0.690374
vt 0.815374 0.516043
vt 0.771791 0.516043
vt 0.728209 0.516043
vt 0.815374 0.516043
vt 0.771791 0.733957
vt 0.728209 0.733957
vt 0.771791 0.733957
vt 0.728208 0.733957
vt 0.684626 0.516043
vt 0.728209 0.516043
vt 0.771791 0.516043
vt 0.815374 0.690374
vt 0.728209 0.559626
vt 0.684626 0.559626
vt 0.771792 0.559626
vt 0.815374 0.559626
vt 0.728209 0.733957
vt 0.684626 0.516043
vt 0.771792 0.516043
vt 0.771791 0.690374
vt 0.815374 0.646791
vt 0.771792 0.603209
vt 0.771791 0.646791
vt 0.815374 0.603209
vt 0.728209 0.646791
vt 0.728209 0.690374
vt 0.728209 0.603209
vt 0.684626 0.690374
vt 0.684626 0.646791
vt 0.684626 0.603209
vt 0.641043 0.646791
vt 0.641043 0.690374
vt 0.641043 0.603209
vt 0.641043 0.646791
vt 0.858957 0.603209
vt 0.858957 0.559626
vt 0.858957 0.559626
vt 0.858957 0.646791
vt 0.858957 0.646792
vt 0.858957 0.559626
vt 0.858957 0.559626
vt 0.858957 0.603209
vt 0.858957 0.646791
vt 0.641043 0.646791
s 1
usemtl Material
f 8/1/1 4/2/2 2/3/3
f 12/4/4 3/5/5 4/6/2
f 1/7/6 4/8/2 3/9/5
f 6/10/7 2/3/3 1/7/6
f 11/11/8 8/12/1 7/13/9
f 7/13/9 6/10/7 5/14/10
f 9/15/11 12/16/4 11/11/8
f 5/14/10 10/17/12 9/15/11
f 10/18/12 1/7/6 3/5/5
f 36/19/13 44/19/14 23/11/15
f 16/13/16 20/13/17 33/20/13
f 8/1/1 12/21/4 4/2/2
f 12/4/4 10/18/12 3/5/5
f 1/7/6 2/3/3 4/8/2
f 6/10/7 8/1/1 2/3/3
f 11/11/8 12/16/4 8/12/1
f 7/13/9 8/1/1 6/10/7
f 9/15/11 10/17/12 12/16/4
f 5/14/10 6/22/7 10/17/12
f 10/18/12 6/10/7 1/7/6
f 20/13/17 24/13/18 41/23/19
f 121/14/20 53/24/21 140/25/22
f 14/14/23 61/26/21 53/24/21
f 123/11/15 49/27/24 136/28/25
f 122/13/18 25/29/13 132/29/26
f 124/15/27 29/30/28 128/30/29
f 19/11/30 65/31/31 57/31/24
f 15/11/32 57/31/24 49/27/24
f 13/15/33 37/32/28 29/30/28
f 16/13/16 33/20/13 25/29/13
f 46/33/34 102/34/35 47/34/36
f 17/15/37 45/35/36 37/32/28
f 20/13/17 41/23/19 33/20/13
f 18/14/38 69/24/39 61/26/21
f 36/19/13 23/11/15 19/11/30
f 35/36/13 44/19/14 36/19/13
f 34/37/13 43/38/19 35/36/13
f 33/20/13 42/39/14 34/37/13
f 40/40/28 22/14/20 18/14/38
f 39/41/28 48/40/34 40/40/28
f 38/42/28 47/34/36 39/41/28
f 37/32/28 46/33/34 38/42/28
f 88/43/40 89/19/41 44/19/14
f 48/40/34 77/44/42 73/45/43
f 69/24/39 113/45/44 73/45/43
f 81/46/43 45/35/36 85/47/42
f 15/11/32 36/19/13 19/11/30
f 28/19/13 35/36/13 36/19/13
f 26/48/13 35/36/13 27/36/13
f 25/29/13 34/37/13 26/48/13
f 14/14/23 40/40/28 18/14/38
f 32/49/28 39/41/28 40/40/28
f 30/33/28 39/41/28 31/34/28
f 29/30/28 38/42/28 30/33/28
f 125/49/29 14/14/23 121/14/20
f 126/34/29 32/49/28 125/49/29
f 127/50/29 31/34/28 126/34/29
f 128/30/29 30/33/28 127/50/29
f 129/19/26 15/11/32 123/11/15
f 130/36/26 28/19/13 129/19/26
f 131/48/26 27/36/13 130/36/26
f 132/29/26 26/48/13 131/48/26
f 84/51/45 44/19/14 43/38/19
f 84/51/45 87/52/42 88/43/40
f 82/53/46 87/52/42 83/54/46
f 81/46/43 86/55/40 82/53/46
f 47/34/36 116/44/41 77/44/42
f 79/56/46 84/51/45 80/57/40
f 79/56/46 82/53/46 83/54/46
f 78/58/46 81/46/43 82/53/46
f 76/59/45 42/39/14 41/23/19
f 75/60/43 80/57/40 76/59/45
f 74/61/45 79/56/46 75/60/43
f 73/45/43 78/58/46 74/61/45
f 43/38/19 105/51/47 84/51/45
f 71/62/39 76/59/45 72/63/48
f 74/61/45 111/64/35 70/64/48
f 69/24/39 74/61/45 70/64/48
f 64/63/21 24/13/18 20/13/17
f 63/65/21 72/63/48 64/63/21
f 62/64/21 71/62/39 63/65/21
f 61/26/21 70/64/48 62/64/21
f 21/15/27 100/35/35 45/35/36
f 87/52/42 65/31/31 88/43/40
f 80/57/40 98/39/41 42/39/14
f 85/47/42 67/66/31 86/55/40
f 13/15/33 60/67/24 17/15/37
f 52/68/24 59/66/24 60/67/24
f 50/69/24 59/66/24 51/66/24
f 49/27/24 58/70/24 50/69/24
f 60/67/24 21/15/27 17/15/37
f 59/66/24 68/71/49 60/67/24
f 58/70/24 67/66/31 59/66/24
f 57/31/24 66/70/49 58/70/24
f 133/72/25 13/15/33 124/15/27
f 134/73/25 52/68/24 133/72/25
f 135/74/25 51/66/24 134/73/25
f 136/28/25 50/69/24 135/74/25
f 16/13/16 64/63/21 20/13/17
f 56/63/21 63/65/21 64/63/21
f 54/64/21 63/65/21 55/75/21
f 53/24/21 62/64/21 54/64/21
f 137/63/22 16/13/16 122/13/18
f 138/75/22 56/63/21 137/63/22
f 139/64/22 55/75/21 138/75/22
f 140/25/22 54/64/21 139/64/22
f 100/35/35 91/71/44 118/47/41
f 94/14/35 113/45/44 110/24/41
f 116/44/41 101/33/47 117/46/44
f 104/57/35 99/38/44 98/39/41
f 95/63/35 97/23/44 96/13/41
f 111/64/35 115/60/44 112/62/41
f 106/43/35 90/11/44 89/19/41
f 119/55/35 108/70/44 120/52/41
f 23/11/15 107/31/47 65/31/31
f 84/51/45 104/57/35 80/57/40
f 44/19/14 90/11/44 23/11/15
f 66/70/49 109/66/47 67/66/31
f 81/46/43 101/33/47 46/33/34
f 68/71/49 92/15/47 21/15/27
f 65/31/31 106/43/35 88/43/40
f 48/40/34 94/14/35 22/14/20
f 22/14/20 110/24/41 69/24/39
f 77/44/42 117/46/44 81/46/43
f 87/52/42 108/70/44 66/70/49
f 72/63/48 96/13/41 24/13/18
f 67/66/31 119/55/35 86/55/40
f 70/64/48 112/62/41 71/62/39
f 45/35/36 118/47/41 85/47/42
f 85/47/42 91/71/44 68/71/49
f 24/13/18 97/23/44 41/23/19
f 73/45/43 93/40/47 48/40/34
f 86/55/40 120/52/41 87/52/42
f 42/39/14 99/38/44 43/38/19
f 76/59/45 95/63/35 72/63/48
f 41/23/19 103/59/47 76/59/45
f 75/60/43 114/61/47 74/61/45
f 71/62/39 115/60/44 75/60/43
f 121/14/20 14/14/23 53/24/21
f 5/14/10 9/15/11 11/11/8
f 5/14/10 11/11/8 7/13/9
f 18/14/38 22/14/20 69/24/39
f 15/11/32 19/11/30 57/31/24
f 19/11/30 23/11/15 65/31/31
f 124/15/27 13/15/33 29/30/28
f 46/33/34 101/33/47 102/34/35
f 122/13/18 16/13/16 25/29/13
f 123/11/15 15/11/32 49/27/24
f 14/14/23 18/14/38 61/26/21
f 17/15/37 21/15/27 45/35/36
f 13/15/33 17/15/37 37/32/28
f 35/36/13 43/38/19 44/19/14
f 34/37/13 42/39/14 43/38/19
f 33/20/13 41/23/19 42/39/14
f 40/40/28 48/40/34 22/14/20
f 39/41/28 47/34/36 48/40/34
f 38/42/28 46/33/34 47/34/36
f 37/32/28 45/35/36 46/33/34
f 88/43/40 106/43/35 89/19/41
f 48/40/34 47/34/36 77/44/42
f 69/24/39 110/24/41 113/45/44
f 81/46/43 46/33/34 45/35/36
f 15/11/32 28/19/13 36/19/13
f 28/19/13 27/36/13 35/36/13
f 26/48/13 34/37/13 35/36/13
f 25/29/13 33/20/13 34/37/13
f 14/14/23 32/49/28 40/40/28
f 32/49/28 31/34/28 39/41/28
f 30/33/28 38/42/28 39/41/28
f 29/30/28 37/32/28 38/42/28
f 125/49/29 32/49/28 14/14/23
f 126/34/29 31/34/28 32/49/28
f 127/50/29 30/33/28 31/34/28
f 128/30/29 29/30/28 30/33/28
f 129/19/26 28/19/13 15/11/32
f 130/36/26 27/36/13 28/19/13
f 131/48/26 26/48/13 27/36/13
f 132/29/26 25/29/13 26/48/13
f 84/51/45 88/43/40 44/19/14
f 84/51/45 83/54/46 87/52/42
f 82/53/46 86/55/40 87/52/42
f 81/46/43 85/47/42 86/55/40
f 47/34/36 102/34/35 116/44/41
f 79/56/46 83/54/46 84/51/45
f 79/56/46 78/58/46 82/53/46
f 78/58/46 77/44/42 81/46/43
f 76/59/45 80/57/40 42/39/14
f 75/60/43 79/56/46 80/57/40
f 74/61/45 78/58/46 79/56/46
f 73/45/43 77/44/42 78/58/46
f 43/38/19 99/38/44 105/51/47
f 71/62/39 75/60/43 76/59/45
f 74/61/45 114/61/47 111/64/35
f 69/24/39 73/45/43 74/61/45
f 64/63/21 72/63/48 24/13/18
f 63/65/21 71/62/39 72/63/48
f 62/64/21 70/64/48 71/62/39
f 61/26/21 69/24/39 70/64/48
f 21/15/27 92/15/47 100/35/35
f 87/52/42 66/70/49 65/31/31
f 80/57/40 104/57/35 98/39/41
f 85/47/42 68/71/49 67/66/31
f 13/15/33 52/68/24 60/67/24
f 52/68/24 51/66/24 59/66/24
f 50/69/24 58/70/24 59/66/24
f 49/27/24 57/31/24 58/70/24
f 60/67/24 68/71/49 21/15/27
f 59/66/24 67/66/31 68/71/49
f 58/70/24 66/70/49 67/66/31
f 57/31/24 65/31/31 66/70/49
f 133/72/25 52/68/24 13/15/33
f 134/73/25 51/66/24 52/68/24
f 135/74/25 50/69/24 51/66/24
f 136/28/25 49/27/24 50/69/24
f 16/13/16 56/63/21 64/63/21
f 56/63/21 55/75/21 63/65/21
f 54/64/21 62/64/21 63/65/21
f 53/24/21 61/26/21 62/64/21
f 137/63/22 56/63/21 16/13/16
f 138/75/22 55/75/21 56/63/21
f 139/64/22 54/64/21 55/75/21
f 140/25/22 53/24/21 54/64/21
f 100/35/35 92/15/47 91/71/44
f 94/14/35 93/40/47 113/45/44
f 116/44/41 102/34/35 101/33/47
f 104/57/35 105/51/47 99/38/44
f 95/63/35 103/59/47 97/23/44
f 111/64/35 114/61/47 115/60/44
f 106/43/35 107/31/47 90/11/44
f 119/55/35 109/66/47 108/70/44
f 23/11/15 90/11/44 107/31/47
f 84/51/45 105/51/47 104/57/35
f 44/19/14 89/19/41 90/11/44
f 66/70/49 108/70/44 109/66/47
f 81/46/43 117/46/44 101/33/47
f 68/71/49 91/71/44 92/15/47
f 65/31/31 107/31/47 106/43/35
f 48/40/34 93/40/47 94/14/35
f 22/14/20 94/14/35 110/24/41
f 77/44/42 116/44/41 117/46/44
f 87/52/42 120/52/41 108/70/44
f 72/63/48 95/63/35 96/13/41
f 67/66/31 109/66/47 119/55/35
f 70/64/48 111/64/35 112/62/41
f 45/35/36 100/35/35 118/47/41
f 85/47/42 118/47/41 91/71/44
f 24/13/18 96/13/41 97/23/44
f 73/45/43 113/45/44 93/40/47
f 86/55/40 119/55/35 120/52/41
f 42/39/14 98/39/41 99/38/44
f 76/59/45 103/59/47 95/63/35
f 41/23/19 97/23/44 103/59/47
f 75/60/43 115/60/44 114/61/47
f 71/62/39 112/62/41 115/60/44
